<svg width="400" height="470" viewBox="0 0 400 470" fill="none" xmlns="http://www.w3.org/2000/svg">
<path d="M0 0.181641H23.45V23.6316H0V0.181641Z" fill="#E9E9E9"/>
<path d="M0 23.6316H23.45V47.0816H0V23.6316Z" fill="#E9E9E9"/>
<path d="M0 47.0816H23.45V70.5316H0V47.0816Z" fill="#E9E9E9"/>
<path d="M0 70.5316H23.45V93.9816H0V70.5316Z" fill="#E9E9E9"/>
<path d="M0 93.9816H23.45V117.432H0V93.9816Z" fill="#E9E9E9"/>
<path d="M0 117.432H23.45V140.882H0V117.432Z" fill="#E9E9E9"/>
<path d="M0 140.882H23.45V164.332H0V140.882Z" fill="#E9E9E9"/>
<path d="M0 164.332H23.45V187.782H0V164.332Z" fill="#E9E9E9"/>
<path d="M0 187.782H23.45V211.232H0V187.782Z" fill="#E9E9E9"/>
<path d="M0 211.232H23.45V234.682H0V211.232Z" fill="#E9E9E9"/>
<path d="M0 234.682H23.45V258.132H0V234.682Z" fill="#E9E9E9"/>
<path d="M0 258.132H23.45V281.582H0V258.132Z" fill="#E9E9E9"/>
<path d="M0 281.582H23.45V305.032H0V281.582Z" fill="#E9E9E9"/>
<path d="M0 305.032H23.45V328.482H0V305.032Z" fill="#E9E9E9"/>
<path d="M0 328.482H23.45V351.932H0V328.482Z" fill="#E9E9E9"/>
<path d="M0 351.932H23.45V375.382H0V351.932Z" fill="#E9E9E9"/>
<path d="M0 375.382H23.45V398.832H0V375.382Z" fill="#E9E9E9"/>
<path d="M0 398.832H23.45V422.282H0V398.832Z" fill="#E9E9E9"/>
<path d="M0 422.282H23.45V445.732H0V422.282Z" fill="#E9E9E9"/>
<path d="M0 445.732H23.45V469.182H0V445.732Z" fill="#E9E9E9"/>
<path d="M23.45 0.181641H46.9V23.6316H23.45V0.181641Z" fill="#E9E9E9"/>
<path d="M23.45 23.6316H46.9V47.0816H23.45V23.6316Z" fill="#E9E9E9"/>
<path d="M23.45 47.0816H46.9V70.5316H23.45V47.0816Z" fill="#E9E9E9"/>
<path d="M23.45 70.5316H46.9V93.9816H23.45V70.5316Z" fill="#E9E9E9"/>
<path d="M23.45 93.9816H46.9V117.432H23.45V93.9816Z" fill="#E9E9E9"/>
<path d="M23.45 117.432H46.9V140.882H23.45V117.432Z" fill="#E9E9E9"/>
<path d="M23.45 140.882H46.9V164.332H23.45V140.882Z" fill="#E9E9E9"/>
<path d="M23.45 164.332H46.9V187.782H23.45V164.332Z" fill="#E9E9E9"/>
<path d="M23.45 187.782H46.9V211.232H23.45V187.782Z" fill="#E9E9E9"/>
<path d="M23.45 211.232H46.9V234.682H23.45V211.232Z" fill="#E9E9E9"/>
<path d="M23.45 234.682H46.9V258.132H23.45V234.682Z" fill="#E9E9E9"/>
<path d="M23.45 258.132H46.9V281.582H23.45V258.132Z" fill="#E9E9E9"/>
<path d="M23.45 281.582H46.9V305.032H23.45V281.582Z" fill="#E9E9E9"/>
<path d="M23.45 305.032H46.9V328.482H23.45V305.032Z" fill="#E9E9E9"/>
<path d="M23.45 328.482H46.9V351.932H23.45V328.482Z" fill="#E9E9E9"/>
<path d="M23.45 351.932H46.9V375.382H23.45V351.932Z" fill="#E9E9E9"/>
<path d="M23.45 375.382H46.9V398.832H23.45V375.382Z" fill="#E9E9E9"/>
<path d="M23.45 398.832H46.9V422.282H23.45V398.832Z" fill="#E9E9E9"/>
<path d="M23.45 422.282H46.9V445.732H23.45V422.282Z" fill="#E9E9E9"/>
<path d="M23.45 445.732H46.9V469.182H23.45V445.732Z" fill="#E9E9E9"/>
<path d="M46.9 0.181641H70.35V23.6316H46.9V0.181641Z" fill="#E9E9E9"/>
<path d="M46.9 23.6316H70.35V47.0816H46.9V23.6316Z" fill="#E9E9E9"/>
<path d="M46.9 47.0816H70.35V70.5316H46.9V47.0816Z" fill="#E9E9E9"/>
<path d="M46.9 70.5316H70.35V93.9816H46.9V70.5316Z" fill="#E9E9E9"/>
<path d="M46.9 93.9816H70.35V117.432H46.9V93.9816Z" fill="#E9E9E9"/>
<path d="M46.9 117.432H70.35V140.882H46.9V117.432Z" fill="#E9E9E9"/>
<path d="M46.9 140.882H70.35V164.332H46.9V140.882Z" fill="#E9E9E9"/>
<path d="M46.9 164.332H70.35V187.782H46.9V164.332Z" fill="#E9E9E9"/>
<path d="M46.9 187.782H70.35V211.232H46.9V187.782Z" fill="#E9E9E9"/>
<path d="M46.9 211.232H70.35V234.682H46.9V211.232Z" fill="#E9E9E9"/>
<path d="M46.9 234.682H70.35V258.132H46.9V234.682Z" fill="#E9E9E9"/>
<path d="M46.9 258.132H70.35V281.582H46.9V258.132Z" fill="#E9E9E9"/>
<path d="M46.9 281.582H70.35V305.032H46.9V281.582Z" fill="#E9E9E9"/>
<path d="M46.9 305.032H70.35V328.482H46.9V305.032Z" fill="#E9E9E9"/>
<path d="M46.9 328.482H70.35V351.932H46.9V328.482Z" fill="#E9E9E9"/>
<path d="M46.9 351.932H70.35V375.382H46.9V351.932Z" fill="#E9E9E9"/>
<path d="M46.9 375.382H70.35V398.832H46.9V375.382Z" fill="#E9E9E9"/>
<path d="M46.9 398.832H70.35V422.282H46.9V398.832Z" fill="#E9E9E9"/>
<path d="M46.9 422.282H70.35V445.732H46.9V422.282Z" fill="#E9E9E9"/>
<path d="M46.9 445.732H70.35V469.182H46.9V445.732Z" fill="#E9E9E9"/>
<path d="M70.35 0.181641H93.8V23.6316H70.35V0.181641Z" fill="#E9E9E9"/>
<path d="M70.35 23.6316H93.8V47.0816H70.35V23.6316Z" fill="#E9E9E9"/>
<path d="M70.35 47.0816H93.8V70.5316H70.35V47.0816Z" fill="#E9E9E9"/>
<path d="M70.35 70.5316H93.8V93.9816H70.35V70.5316Z" fill="#E9E9E9"/>
<path d="M70.35 93.9816H93.8V117.432H70.35V93.9816Z" fill="#E9E9E9"/>
<path d="M70.35 117.432H93.8V140.882H70.35V117.432Z" fill="#E9E9E9"/>
<path d="M70.35 140.882H93.8V164.332H70.35V140.882Z" fill="#E9E9E9"/>
<path d="M70.35 164.332H93.8V187.782H70.35V164.332Z" fill="#E9E9E9"/>
<path d="M70.35 187.782H93.8V211.232H70.35V187.782Z" fill="#E9E9E9"/>
<path d="M70.35 211.232H93.8V234.682H70.35V211.232Z" fill="#E9E9E9"/>
<path d="M70.35 234.682H93.8V258.132H70.35V234.682Z" fill="#E9E9E9"/>
<path d="M70.35 258.132H93.8V281.582H70.35V258.132Z" fill="#E9E9E9"/>
<path d="M70.35 281.582H93.8V305.032H70.35V281.582Z" fill="#E9E9E9"/>
<path d="M70.35 305.032H93.8V328.482H70.35V305.032Z" fill="#E9E9E9"/>
<path d="M70.35 328.482H93.8V351.932H70.35V328.482Z" fill="#E9E9E9"/>
<path d="M70.35 351.932H93.8V375.382H70.35V351.932Z" fill="#E9E9E9"/>
<path d="M70.35 375.382H93.8V398.832H70.35V375.382Z" fill="#E9E9E9"/>
<path d="M70.35 398.832H93.8V422.282H70.35V398.832Z" fill="#E9E9E9"/>
<path d="M70.35 422.282H93.8V445.732H70.35V422.282Z" fill="#E9E9E9"/>
<path d="M70.35 445.732H93.8V469.182H70.35V445.732Z" fill="#E9E9E9"/>
<path d="M93.8 0.181641H117.25V23.6316H93.8V0.181641Z" fill="#E9E9E9"/>
<path d="M93.8 23.6316H117.25V47.0816H93.8V23.6316Z" fill="#E9E9E9"/>
<path d="M93.8 47.0816H117.25V70.5316H93.8V47.0816Z" fill="#E9E9E9"/>
<path d="M93.8 70.5316H117.25V93.9816H93.8V70.5316Z" fill="#E9E9E9"/>
<path d="M93.8 93.9816H117.25V117.432H93.8V93.9816Z" fill="#E9E9E9"/>
<path d="M93.8 117.432H117.25V140.882H93.8V117.432Z" fill="#E9E9E9"/>
<path d="M93.8 140.882H117.25V164.332H93.8V140.882Z" fill="#E9E9E9"/>
<path d="M93.8 164.332H117.25V187.782H93.8V164.332Z" fill="#E9E9E9"/>
<path d="M93.8 187.782H117.25V211.232H93.8V187.782Z" fill="#E9E9E9"/>
<path d="M93.8 211.232H117.25V234.682H93.8V211.232Z" fill="#E9E9E9"/>
<path d="M93.8 234.682H117.25V258.132H93.8V234.682Z" fill="#E9E9E9"/>
<path d="M93.8 258.132H117.25V281.582H93.8V258.132Z" fill="#E9E9E9"/>
<path d="M93.8 281.582H117.25V305.032H93.8V281.582Z" fill="#E9E9E9"/>
<path d="M93.8 305.032H117.25V328.482H93.8V305.032Z" fill="#E9E9E9"/>
<path d="M93.8 328.482H117.25V351.932H93.8V328.482Z" fill="#E9E9E9"/>
<path d="M93.8 351.932H117.25V375.382H93.8V351.932Z" fill="#E9E9E9"/>
<path d="M93.8 375.382H117.25V398.832H93.8V375.382Z" fill="#E9E9E9"/>
<path d="M93.8 398.832H117.25V422.282H93.8V398.832Z" fill="#E9E9E9"/>
<path d="M93.8 422.282H117.25V445.732H93.8V422.282Z" fill="#E9E9E9"/>
<path d="M93.8 445.732H117.25V469.182H93.8V445.732Z" fill="#E9E9E9"/>
<path d="M117.25 0.181641H140.7V23.6316H117.25V0.181641Z" fill="#E9E9E9"/>
<path d="M117.25 23.6316H140.7V47.0816H117.25V23.6316Z" fill="#E9E9E9"/>
<path d="M117.25 47.0816H140.7V70.5316H117.25V47.0816Z" fill="#E9E9E9"/>
<path d="M117.25 70.5316H140.7V93.9816H117.25V70.5316Z" fill="#E9E9E9"/>
<path d="M117.25 93.9816H140.7V117.432H117.25V93.9816Z" fill="#E9E9E9"/>
<path d="M117.25 117.432H140.7V140.882H117.25V117.432Z" fill="#E9E9E9"/>
<path d="M117.25 140.882H140.7V164.332H117.25V140.882Z" fill="#E9E9E9"/>
<path d="M117.25 164.332H140.7V187.782H117.25V164.332Z" fill="#E9E9E9"/>
<path d="M117.25 187.782H140.7V211.232H117.25V187.782Z" fill="#E9E9E9"/>
<path d="M117.25 211.232H140.7V234.682H117.25V211.232Z" fill="#E9E9E9"/>
<path d="M117.25 234.682H140.7V258.132H117.25V234.682Z" fill="#E9E9E9"/>
<path d="M117.25 258.132H140.7V281.582H117.25V258.132Z" fill="#E9E9E9"/>
<path d="M117.25 281.582H140.7V305.032H117.25V281.582Z" fill="#E9E9E9"/>
<path d="M117.25 305.032H140.7V328.482H117.25V305.032Z" fill="#E9E9E9"/>
<path d="M117.25 328.482H140.7V351.932H117.25V328.482Z" fill="#E9E9E9"/>
<path d="M117.25 351.932H140.7V375.382H117.25V351.932Z" fill="#E9E9E9"/>
<path d="M117.25 375.382H140.7V398.832H117.25V375.382Z" fill="#E9E9E9"/>
<path d="M117.25 398.832H140.7V422.282H117.25V398.832Z" fill="#E9E9E9"/>
<path d="M117.25 422.282H140.7V445.732H117.25V422.282Z" fill="#E9E9E9"/>
<path d="M117.25 445.732H140.7V469.182H117.25V445.732Z" fill="#E9E9E9"/>
<path d="M140.7 0.181641H164.15V23.6316H140.7V0.181641Z" fill="#E9E9E9"/>
<path d="M140.7 23.6316H164.15V47.0816H140.7V23.6316Z" fill="#E9E9E9"/>
<path d="M140.7 47.0816H164.15V70.5316H140.7V47.0816Z" fill="#E9E9E9"/>
<path d="M140.7 70.5316H164.15V93.9816H140.7V70.5316Z" fill="#E9E9E9"/>
<path d="M140.7 93.9816H164.15V117.432H140.7V93.9816Z" fill="#E9E9E9"/>
<path d="M140.7 117.432H164.15V140.882H140.7V117.432Z" fill="#E9E9E9"/>
<path d="M140.7 140.882H164.15V164.332H140.7V140.882Z" fill="#E9E9E9"/>
<path d="M140.7 187.782H164.15V211.232H140.7V187.782Z" fill="#E9E9E9"/>
<path d="M140.7 211.232H164.15V234.682H140.7V211.232Z" fill="#E9E9E9"/>
<path d="M140.7 234.682H164.15V258.132H140.7V234.682Z" fill="#E9E9E9"/>
<path d="M140.7 258.132H164.15V281.582H140.7V258.132Z" fill="#E9E9E9"/>
<path d="M140.7 281.582H164.15V305.032H140.7V281.582Z" fill="#E9E9E9"/>
<path d="M140.7 305.032H164.15V328.482H140.7V305.032Z" fill="#E9E9E9"/>
<path d="M140.7 328.482H164.15V351.932H140.7V328.482Z" fill="#E9E9E9"/>
<path d="M140.7 351.932H164.15V375.382H140.7V351.932Z" fill="#E9E9E9"/>
<path d="M140.7 375.382H164.15V398.832H140.7V375.382Z" fill="#E9E9E9"/>
<path d="M140.7 398.832H164.15V422.282H140.7V398.832Z" fill="#E9E9E9"/>
<path d="M140.7 422.282H164.15V445.732H140.7V422.282Z" fill="#E9E9E9"/>
<path d="M140.7 445.732H164.15V469.182H140.7V445.732Z" fill="#E9E9E9"/>
<path d="M164.15 0.181641H187.6V23.6316H164.15V0.181641Z" fill="#E9E9E9"/>
<path d="M164.15 23.6316H187.6V47.0816H164.15V23.6316Z" fill="#E9E9E9"/>
<path d="M164.15 47.0816H187.6V70.5316H164.15V47.0816Z" fill="#E9E9E9"/>
<path d="M164.15 70.5316H187.6V93.9816H164.15V70.5316Z" fill="#E9E9E9"/>
<path d="M164.15 93.9816H187.6V117.432H164.15V93.9816Z" fill="#E9E9E9"/>
<path d="M164.15 117.432H187.6V140.882H164.15V117.432Z" fill="#E9E9E9"/>
<path d="M164.15 140.882H187.6V164.332H164.15V140.882Z" fill="#E9E9E9"/>
<path d="M164.15 187.782H187.6V211.232H164.15V187.782Z" fill="#E9E9E9"/>
<path d="M164.15 211.232H187.6V234.682H164.15V211.232Z" fill="#E9E9E9"/>
<path d="M164.15 234.682H187.6V258.132H164.15V234.682Z" fill="#E9E9E9"/>
<path d="M164.15 258.132H187.6V281.582H164.15V258.132Z" fill="#E9E9E9"/>
<path d="M164.15 281.582H187.6V305.032H164.15V281.582Z" fill="#E9E9E9"/>
<path d="M164.15 305.032H187.6V328.482H164.15V305.032Z" fill="#E9E9E9"/>
<path d="M164.15 328.482H187.6V351.932H164.15V328.482Z" fill="#E9E9E9"/>
<path d="M164.15 351.932H187.6V375.382H164.15V351.932Z" fill="#E9E9E9"/>
<path d="M164.15 375.382H187.6V398.832H164.15V375.382Z" fill="#E9E9E9"/>
<path d="M164.15 398.832H187.6V422.282H164.15V398.832Z" fill="#E9E9E9"/>
<path d="M164.15 422.282H187.6V445.732H164.15V422.282Z" fill="#E9E9E9"/>
<path d="M164.15 445.732H187.6V469.182H164.15V445.732Z" fill="#E9E9E9"/>
<path d="M187.6 0.181641H211.05V23.6316H187.6V0.181641Z" fill="#E9E9E9"/>
<path d="M187.6 23.6316H211.05V47.0816H187.6V23.6316Z" fill="#E9E9E9"/>
<path d="M187.6 47.0816H211.05V70.5316H187.6V47.0816Z" fill="#E9E9E9"/>
<path d="M187.6 70.5316H211.05V93.9816H187.6V70.5316Z" fill="#E9E9E9"/>
<path d="M187.6 93.9816H211.05V117.432H187.6V93.9816Z" fill="#E9E9E9"/>
<path d="M187.6 117.432H211.05V140.882H187.6V117.432Z" fill="#E9E9E9"/>
<path d="M187.6 140.882H211.05V164.332H187.6V140.882Z" fill="#E9E9E9"/>
<path d="M187.6 164.332H211.05V187.782H187.6V164.332Z" fill="#E9E9E9"/>
<path d="M187.6 187.782H211.05V211.232H187.6V187.782Z" fill="#E9E9E9"/>
<path d="M187.6 211.232H211.05V234.682H187.6V211.232Z" fill="#E9E9E9"/>
<path d="M187.6 234.682H211.05V258.132H187.6V234.682Z" fill="#E9E9E9"/>
<path d="M187.6 258.132H211.05V281.582H187.6V258.132Z" fill="#E9E9E9"/>
<path d="M187.6 281.582H211.05C211.05 281.582 211.05 295.874 211.05 305.032C201.892 305.032 187.6 305.032 187.6 305.032V281.582Z" fill="#E9E9E9"/>
<path d="M187.6 305.032C187.6 305.032 201.892 305.032 211.05 305.032C211.05 314.189 211.05 328.482 211.05 328.482H187.6V305.032Z" fill="#E9E9E9"/>
<path d="M187.6 328.482H211.05V351.932H187.6V328.482Z" fill="#E9E9E9"/>
<path d="M187.6 351.932H211.05V375.382H187.6V351.932Z" fill="#E9E9E9"/>
<path d="M187.6 375.382H211.05V398.832H187.6V375.382Z" fill="#E9E9E9"/>
<path d="M187.6 398.832H211.05V422.282H187.6V398.832Z" fill="#E9E9E9"/>
<path d="M187.6 422.282H211.05V445.732H187.6V422.282Z" fill="#E9E9E9"/>
<path d="M187.6 445.732H211.05V469.182H187.6V445.732Z" fill="#E9E9E9"/>
<path d="M211.05 0.181641H234.5V23.6316H211.05V0.181641Z" fill="#E9E9E9"/>
<path d="M211.05 23.6316H234.5V47.0816H211.05V23.6316Z" fill="#E9E9E9"/>
<path d="M211.05 47.0816H234.5V70.5316H211.05V47.0816Z" fill="#E9E9E9"/>
<path d="M211.05 70.5316H234.5V93.9816H211.05V70.5316Z" fill="#E9E9E9"/>
<path d="M211.05 93.9816H234.5V117.432H211.05V93.9816Z" fill="#E9E9E9"/>
<path d="M211.05 117.432H234.5V140.882H211.05V117.432Z" fill="#E9E9E9"/>
<path d="M211.05 140.882H234.5V164.332H211.05V140.882Z" fill="#E9E9E9"/>
<path d="M211.05 164.332H234.5V187.782H211.05V164.332Z" fill="#E9E9E9"/>
<path d="M211.05 187.782H234.5V211.232H211.05V187.782Z" fill="#E9E9E9"/>
<path d="M211.05 211.232H234.5V234.682H211.05V211.232Z" fill="#E9E9E9"/>
<path d="M211.05 234.682H234.5V258.132H211.05V234.682Z" fill="#E9E9E9"/>
<path d="M211.05 258.132H234.5V281.582H211.05V258.132Z" fill="#E9E9E9"/>
<path d="M211.05 281.582H234.5V305.032C234.5 305.032 220.208 305.032 211.05 305.032C211.05 295.874 211.05 281.582 211.05 281.582Z" fill="#E9E9E9"/>
<path d="M211.05 305.032C220.208 305.032 234.5 305.032 234.5 305.032V328.482H211.05C211.05 328.482 211.05 314.189 211.05 305.032Z" fill="#E9E9E9"/>
<path d="M211.05 328.482H234.5V351.932H211.05V328.482Z" fill="#E9E9E9"/>
<path d="M211.05 351.932H234.5V375.382H211.05V351.932Z" fill="#E9E9E9"/>
<path d="M211.05 375.382H234.5V398.832H211.05V375.382Z" fill="#E9E9E9"/>
<path d="M211.05 398.832H234.5V422.282H211.05V398.832Z" fill="#E9E9E9"/>
<path d="M211.05 422.282H234.5V445.732H211.05V422.282Z" fill="#E9E9E9"/>
<path d="M211.05 445.732H234.5V469.182H211.05V445.732Z" fill="#E9E9E9"/>
<path d="M234.5 0.181641H257.95V23.6316H234.5V0.181641Z" fill="#E9E9E9"/>
<path d="M234.5 23.6316H257.95V47.0816H234.5V23.6316Z" fill="#E9E9E9"/>
<path d="M234.5 47.0816H257.95V70.5316H234.5V47.0816Z" fill="#E9E9E9"/>
<path d="M234.5 70.5316H257.95V93.9816H234.5V70.5316Z" fill="#E9E9E9"/>
<path d="M234.5 93.9816H257.95V117.432H234.5V93.9816Z" fill="#E9E9E9"/>
<path d="M234.5 117.432H257.95V140.882H234.5V117.432Z" fill="#E9E9E9"/>
<path d="M234.5 140.882H257.95V164.332H234.5V140.882Z" fill="#E9E9E9"/>
<path d="M234.5 164.332H257.95V187.782H234.5V164.332Z" fill="#E9E9E9"/>
<path d="M234.5 187.782H257.95V211.232H234.5V187.782Z" fill="#E9E9E9"/>
<path d="M234.5 211.232H257.95V234.682H234.5V211.232Z" fill="#E9E9E9"/>
<path d="M234.5 234.682H257.95V258.132H234.5V234.682Z" fill="#E9E9E9"/>
<path d="M234.5 258.132H257.95V281.582H234.5V258.132Z" fill="#E9E9E9"/>
<path d="M234.5 281.582H257.95V305.032H234.5V281.582Z" fill="#E9E9E9"/>
<path d="M234.5 305.032H257.95V328.482H234.5V305.032Z" fill="#E9E9E9"/>
<path d="M234.5 328.482H257.95V351.932H234.5V328.482Z" fill="#E9E9E9"/>
<path d="M234.5 351.932H257.95V375.382H234.5V351.932Z" fill="#E9E9E9"/>
<path d="M234.5 375.382H257.95V398.832H234.5V375.382Z" fill="#E9E9E9"/>
<path d="M234.5 398.832H257.95V422.282H234.5V398.832Z" fill="#E9E9E9"/>
<path d="M234.5 422.282H257.95V445.732H234.5V422.282Z" fill="#E9E9E9"/>
<path d="M234.5 445.732H257.95V469.182H234.5V445.732Z" fill="#E9E9E9"/>
<path d="M257.95 0.181641H281.4V23.6316H257.95V0.181641Z" fill="#E9E9E9"/>
<path d="M257.95 23.6316H281.4V47.0816H257.95V23.6316Z" fill="#E9E9E9"/>
<path d="M257.95 47.0816H281.4V70.5316H257.95V47.0816Z" fill="#E9E9E9"/>
<path d="M257.95 140.882H281.4V164.332H257.95V140.882Z" fill="#E9E9E9"/>
<path d="M257.95 164.332H281.4V187.782H257.95V164.332Z" fill="#E9E9E9"/>
<path d="M257.95 187.782H281.4V211.232H257.95V187.782Z" fill="#E9E9E9"/>
<path d="M257.95 211.232H281.4V234.682H257.95V211.232Z" fill="#E9E9E9"/>
<path d="M257.95 234.682H281.4V258.132H257.95V234.682Z" fill="#E9E9E9"/>
<path d="M257.95 258.132H281.4V281.582H257.95V258.132Z" fill="#E9E9E9"/>
<path d="M257.95 281.582H281.4V305.032H257.95V281.582Z" fill="#E9E9E9"/>
<path d="M257.95 305.032H281.4V328.482H257.95V305.032Z" fill="#E9E9E9"/>
<path d="M257.95 328.482H281.4V351.932H257.95V328.482Z" fill="#E9E9E9"/>
<path d="M257.95 351.932H281.4V375.382H257.95V351.932Z" fill="#E9E9E9"/>
<path d="M257.95 375.382H281.4V398.832H257.95V375.382Z" fill="#E9E9E9"/>
<path d="M257.95 398.832H281.4V422.282H257.95V398.832Z" fill="#E9E9E9"/>
<path d="M257.95 422.282H281.4V445.732H257.95V422.282Z" fill="#E9E9E9"/>
<path d="M257.95 445.732H281.4V469.182H257.95V445.732Z" fill="#E9E9E9"/>
<path d="M281.4 0.181641H304.85V23.6316H281.4V0.181641Z" fill="#E9E9E9"/>
<path d="M281.4 23.6316H304.85V47.0816H281.4V23.6316Z" fill="#E9E9E9"/>
<path d="M281.4 47.0816H304.85V70.5316H281.4V47.0816Z" fill="#E9E9E9"/>
<path d="M281.4 140.882H304.85V164.332H281.4V140.882Z" fill="#E9E9E9"/>
<path d="M281.4 164.332H304.85V187.782H281.4V164.332Z" fill="#E9E9E9"/>
<path d="M281.4 187.782H304.85V211.232H281.4V187.782Z" fill="#E9E9E9"/>
<path d="M281.4 211.232H304.85V234.682H281.4V211.232Z" fill="#E9E9E9"/>
<path d="M281.4 234.682H304.85V258.132H281.4V234.682Z" fill="#E9E9E9"/>
<path d="M281.4 258.132H304.85V281.582H281.4V258.132Z" fill="#E9E9E9"/>
<path d="M281.4 281.582H304.85V305.032H281.4V281.582Z" fill="#E9E9E9"/>
<path d="M281.4 305.032H304.85V328.482H281.4V305.032Z" fill="#E9E9E9"/>
<path d="M281.4 328.482H304.85V351.932H281.4V328.482Z" fill="#E9E9E9"/>
<path d="M281.4 351.932H304.85V375.382H281.4V351.932Z" fill="#E9E9E9"/>
<path d="M281.4 375.382H304.85V398.832H281.4V375.382Z" fill="#E9E9E9"/>
<path d="M281.4 398.832H304.85V422.282H281.4V398.832Z" fill="#E9E9E9"/>
<path d="M281.4 422.282H304.85V445.732H281.4V422.282Z" fill="#E9E9E9"/>
<path d="M281.4 445.732H304.85V469.182H281.4V445.732Z" fill="#E9E9E9"/>
<path d="M304.85 0.181641H328.3V23.6316H304.85V0.181641Z" fill="#E9E9E9"/>
<path d="M304.85 23.6316H328.3V47.0816H304.85V23.6316Z" fill="#E9E9E9"/>
<path d="M304.85 47.0816H328.3V70.5316H304.85V47.0816Z" fill="#E9E9E9"/>
<path d="M304.85 140.882H328.3V164.332H304.85V140.882Z" fill="#E9E9E9"/>
<path d="M304.85 164.332H328.3V187.782H304.85V164.332Z" fill="#E9E9E9"/>
<path d="M304.85 187.782H328.3V211.232H304.85V187.782Z" fill="#E9E9E9"/>
<path d="M304.85 211.232H328.3V234.682H304.85V211.232Z" fill="#E9E9E9"/>
<path d="M304.85 234.682H328.3V258.132H304.85V234.682Z" fill="#E9E9E9"/>
<path d="M304.85 258.132H328.3V281.582H304.85V258.132Z" fill="#E9E9E9"/>
<path d="M304.85 281.582H328.3V305.032H304.85V281.582Z" fill="#E9E9E9"/>
<path d="M304.85 305.032H328.3V328.482H304.85V305.032Z" fill="#E9E9E9"/>
<path d="M304.85 328.482H328.3V351.932H304.85V328.482Z" fill="#E9E9E9"/>
<path d="M304.85 351.932H328.3V375.382H304.85V351.932Z" fill="#E9E9E9"/>
<path d="M304.85 375.382H328.3V398.832H304.85V375.382Z" fill="#E9E9E9"/>
<path d="M304.85 398.832H328.3V422.282H304.85V398.832Z" fill="#E9E9E9"/>
<path d="M304.85 422.282H328.3V445.732H304.85V422.282Z" fill="#E9E9E9"/>
<path d="M304.85 445.732H328.3V469.182H304.85V445.732Z" fill="#E9E9E9"/>
<path d="M328.3 0.181641H351.75V23.6316H328.3V0.181641Z" fill="#E9E9E9"/>
<path d="M328.3 23.6316H351.75V47.0816H328.3V23.6316Z" fill="#E9E9E9"/>
<path d="M328.3 47.0816H351.75V70.5316H328.3V47.0816Z" fill="#E9E9E9"/>
<path d="M328.3 187.782H351.75V211.232H328.3V187.782Z" fill="#E9E9E9"/>
<path d="M328.3 211.232H351.75V234.682H328.3V211.232Z" fill="#E9E9E9"/>
<path d="M328.3 234.682H351.75V258.132H328.3V234.682Z" fill="#E9E9E9"/>
<path d="M328.3 258.132H351.75V281.582H328.3V258.132Z" fill="#E9E9E9"/>
<path d="M328.3 281.582H351.75V305.032H328.3V281.582Z" fill="#E9E9E9"/>
<path d="M328.3 305.032H351.75V328.482H328.3V305.032Z" fill="#E9E9E9"/>
<path d="M328.3 328.482H351.75V351.932H328.3V328.482Z" fill="#E9E9E9"/>
<path d="M328.3 351.932H351.75V375.382H328.3V351.932Z" fill="#E9E9E9"/>
<path d="M328.3 375.382H351.75V398.832H328.3V375.382Z" fill="#E9E9E9"/>
<path d="M328.3 398.832H351.75V422.282H328.3V398.832Z" fill="#E9E9E9"/>
<path d="M328.3 422.282H351.75V445.732H328.3V422.282Z" fill="#E9E9E9"/>
<path d="M328.3 445.732H351.75V469.182H328.3V445.732Z" fill="#E9E9E9"/>
<path d="M351.75 0.181641H375.2V23.6316H351.75V0.181641Z" fill="#E9E9E9"/>
<path d="M351.75 23.6316H375.2V47.0816H351.75V23.6316Z" fill="#E9E9E9"/>
<path d="M351.75 47.0816H375.2V70.5316H351.75V47.0816Z" fill="#E9E9E9"/>
<path d="M351.75 187.782H375.2V211.232H351.75V187.782Z" fill="#E9E9E9"/>
<path d="M351.75 211.232H375.2V234.682H351.75V211.232Z" fill="#E9E9E9"/>
<path d="M351.75 234.682H375.2V258.132H351.75V234.682Z" fill="#E9E9E9"/>
<path d="M351.75 258.132H375.2V281.582H351.75V258.132Z" fill="#E9E9E9"/>
<path d="M351.75 281.582H375.2V305.032H351.75V281.582Z" fill="#E9E9E9"/>
<path d="M351.75 305.032H375.2V328.482H351.75V305.032Z" fill="#E9E9E9"/>
<path d="M351.75 328.482H375.2V351.932H351.75V328.482Z" fill="#E9E9E9"/>
<path d="M351.75 351.932H375.2V375.382H351.75V351.932Z" fill="#E9E9E9"/>
<path d="M351.75 375.382H375.2V398.832H351.75V375.382Z" fill="#E9E9E9"/>
<path d="M351.75 398.832H375.2V422.282H351.75V398.832Z" fill="#E9E9E9"/>
<path d="M351.75 422.282H375.2V445.732H351.75V422.282Z" fill="#E9E9E9"/>
<path d="M351.75 445.732H375.2V469.182H351.75V445.732Z" fill="#E9E9E9"/>
<path d="M375.2 0.181641H398.65V23.6316H375.2V0.181641Z" fill="#E9E9E9"/>
<path d="M375.2 23.6316H398.65V47.0816H375.2V23.6316Z" fill="#E9E9E9"/>
<path d="M375.2 47.0816H398.65V70.5316H375.2V47.0816Z" fill="#E9E9E9"/>
<path d="M375.2 187.782H398.65V211.232H375.2V187.782Z" fill="#E9E9E9"/>
<path d="M375.2 211.232H398.65V234.682H375.2V211.232Z" fill="#E9E9E9"/>
<path d="M375.2 234.682H398.65V258.132H375.2V234.682Z" fill="#E9E9E9"/>
<path d="M375.2 258.132H398.65V281.582H375.2V258.132Z" fill="#E9E9E9"/>
<path d="M375.2 281.582H398.65V305.032H375.2V281.582Z" fill="#E9E9E9"/>
<path d="M375.2 305.032H398.65V328.482H375.2V305.032Z" fill="#E9E9E9"/>
<path d="M375.2 328.482H398.65V351.932H375.2V328.482Z" fill="#E9E9E9"/>
<path d="M375.2 351.932H398.65V375.382H375.2V351.932Z" fill="#E9E9E9"/>
<path d="M375.2 375.382H398.65V398.832H375.2V375.382Z" fill="#E9E9E9"/>
<path d="M375.2 398.832H398.65V422.282H375.2V398.832Z" fill="#E9E9E9"/>
<path d="M375.2 422.282H398.65V445.732H375.2V422.282Z" fill="#E9E9E9"/>
<path d="M375.2 445.732H398.65V469.182H375.2V445.732Z" fill="#E9E9E9"/>
<path d="M398.65 0.181641H422.1V23.6316H398.65V0.181641Z" fill="#E9E9E9"/>
<path d="M398.65 23.6316H422.1V47.0816H398.65V23.6316Z" fill="#E9E9E9"/>
<path d="M398.65 47.0816H422.1V70.5316H398.65V47.0816Z" fill="#E9E9E9"/>
<path d="M398.65 187.782H422.1V211.232H398.65V187.782Z" fill="#E9E9E9"/>
<path d="M398.65 211.232H422.1V234.682H398.65V211.232Z" fill="#E9E9E9"/>
<path d="M398.65 234.682H422.1V258.132H398.65V234.682Z" fill="#E9E9E9"/>
<path d="M398.65 258.132H422.1V281.582H398.65V258.132Z" fill="#E9E9E9"/>
<path d="M398.65 281.582H422.1V305.032H398.65V281.582Z" fill="#E9E9E9"/>
<path d="M398.65 305.032H422.1V328.482H398.65V305.032Z" fill="#E9E9E9"/>
<path d="M398.65 328.482H422.1V351.932H398.65V328.482Z" fill="#E9E9E9"/>
<path d="M398.65 351.932H422.1V375.382H398.65V351.932Z" fill="#E9E9E9"/>
<path d="M398.65 375.382H422.1V398.832H398.65V375.382Z" fill="#E9E9E9"/>
<path d="M398.65 398.832H422.1V422.282H398.65V398.832Z" fill="#E9E9E9"/>
<path d="M398.65 422.282H422.1V445.732H398.65V422.282Z" fill="#E9E9E9"/>
<path d="M398.65 445.732H422.1V469.182H398.65V445.732Z" fill="#E9E9E9"/>
<path d="M422.1 0.181641H445.55V23.6316H422.1V0.181641Z" fill="#E9E9E9"/>
<path d="M422.1 23.6316H445.55V47.0816H422.1V23.6316Z" fill="#E9E9E9"/>
<path d="M422.1 47.0816H445.55V70.5316H422.1V47.0816Z" fill="#E9E9E9"/>
<path d="M422.1 187.782H445.55V211.232H422.1V187.782Z" fill="#E9E9E9"/>
<path d="M422.1 211.232H445.55V234.682H422.1V211.232Z" fill="#E9E9E9"/>
<path d="M422.1 234.682H445.55V258.132H422.1V234.682Z" fill="#E9E9E9"/>
<path d="M422.1 258.132H445.55V281.582H422.1V258.132Z" fill="#E9E9E9"/>
<path d="M422.1 281.582H445.55V305.032H422.1V281.582Z" fill="#E9E9E9"/>
<path d="M422.1 305.032H445.55V328.482H422.1V305.032Z" fill="#E9E9E9"/>
<path d="M422.1 328.482H445.55V351.932H422.1V328.482Z" fill="#E9E9E9"/>
<path d="M422.1 351.932H445.55V375.382H422.1V351.932Z" fill="#E9E9E9"/>
<path d="M422.1 375.382H445.55V398.832H422.1V375.382Z" fill="#E9E9E9"/>
<path d="M422.1 398.832H445.55V422.282H422.1V398.832Z" fill="#E9E9E9"/>
<path d="M422.1 422.282H445.55V445.732H422.1V422.282Z" fill="#E9E9E9"/>
<path d="M422.1 445.732H445.55V469.182H422.1V445.732Z" fill="#E9E9E9"/>
<path d="M445.55 0.181641H469V23.6316H445.55V0.181641Z" fill="#E9E9E9"/>
<path d="M445.55 23.6316H469V47.0816H445.55V23.6316Z" fill="#E9E9E9"/>
<path d="M445.55 47.0816H469V70.5316H445.55V47.0816Z" fill="#E9E9E9"/>
<path d="M445.55 187.782H469V211.232H445.55V187.782Z" fill="#E9E9E9"/>
<path d="M445.55 211.232H469V234.682H445.55V211.232Z" fill="#E9E9E9"/>
<path d="M445.55 234.682H469V258.132H445.55V234.682Z" fill="#E9E9E9"/>
<path d="M445.55 258.132H469V281.582H445.55V258.132Z" fill="#E9E9E9"/>
<path d="M445.55 281.582H469V305.032H445.55V281.582Z" fill="#E9E9E9"/>
<path d="M445.55 305.032H469V328.482H445.55V305.032Z" fill="#E9E9E9"/>
<path d="M445.55 328.482H469V351.932H445.55V328.482Z" fill="#E9E9E9"/>
<path d="M445.55 351.932H469V375.382H445.55V351.932Z" fill="#E9E9E9"/>
<path d="M445.55 375.382H469V398.832H445.55V375.382Z" fill="#E9E9E9"/>
<path d="M445.55 398.832H469V422.282H445.55V398.832Z" fill="#E9E9E9"/>
<path d="M445.55 422.282H469V445.732H445.55V422.282Z" fill="#E9E9E9"/>
<path d="M445.55 445.732H469V469.182H445.55V445.732Z" fill="#E9E9E9"/>
<path d="M469 0.181641H492.45V23.6316H469V0.181641Z" fill="#E9E9E9"/>
<path d="M469 47.0816H492.45V70.5316H469V47.0816Z" fill="#E9E9E9"/>
<path d="M469 187.782H492.45V211.232H469V187.782Z" fill="#E9E9E9"/>
<path d="M469 211.232H492.45V234.682H469V211.232Z" fill="#E9E9E9"/>
<path d="M469 234.682H492.45V258.132H469V234.682Z" fill="#E9E9E9"/>
<path d="M469 258.132H492.45V281.582H469V258.132Z" fill="#E9E9E9"/>
<path d="M469 281.582H492.45V305.032H469V281.582Z" fill="#E9E9E9"/>
<path d="M469 305.032H492.45V328.482H469V305.032Z" fill="#E9E9E9"/>
<path d="M469 328.482H492.45V351.932H469V328.482Z" fill="#E9E9E9"/>
<path d="M469 351.932H492.45V375.382H469V351.932Z" fill="#E9E9E9"/>
<path d="M469 375.382H492.45V398.832H469V375.382Z" fill="#E9E9E9"/>
<path d="M469 398.832H492.45V422.282H469V398.832Z" fill="#E9E9E9"/>
<path d="M469 422.282H492.45V445.732H469V422.282Z" fill="#E9E9E9"/>
<path d="M469 445.732H492.45V469.182H469V445.732Z" fill="#E9E9E9"/>
<path d="M492.45 0.181641H515.9V23.6316H492.45V0.181641Z" fill="#E9E9E9"/>
<path d="M492.45 47.0816H515.9V70.5316H492.45V47.0816Z" fill="#E9E9E9"/>
<path d="M492.45 187.782H515.9V211.232H492.45V187.782Z" fill="#E9E9E9"/>
<path d="M492.45 211.232H515.9V234.682H492.45V211.232Z" fill="#E9E9E9"/>
<path d="M492.45 234.682H515.9V258.132H492.45V234.682Z" fill="#E9E9E9"/>
<path d="M492.45 258.132H515.9V281.582H492.45V258.132Z" fill="#E9E9E9"/>
<path d="M492.45 281.582H515.9V305.032H492.45V281.582Z" fill="#E9E9E9"/>
<path d="M492.45 305.032H515.9V328.482H492.45V305.032Z" fill="#E9E9E9"/>
<path d="M492.45 328.482H515.9V351.932H492.45V328.482Z" fill="#E9E9E9"/>
<path d="M492.45 351.932H515.9V375.382H492.45V351.932Z" fill="#E9E9E9"/>
<path d="M492.45 375.382H515.9V398.832H492.45V375.382Z" fill="#E9E9E9"/>
<path d="M492.45 398.832H515.9V422.282H492.45V398.832Z" fill="#E9E9E9"/>
<path d="M492.45 422.282H515.9V445.732H492.45V422.282Z" fill="#E9E9E9"/>
<path d="M492.45 445.732H515.9V469.182H492.45V445.732Z" fill="#E9E9E9"/>
<path d="M515.9 0.181641H539.35V23.6316H515.9V0.181641Z" fill="#E9E9E9"/>
<path d="M515.9 47.0816H539.35V70.5316H515.9V47.0816Z" fill="#E9E9E9"/>
<path d="M515.9 187.782H539.35V211.232H515.9V187.782Z" fill="#E9E9E9"/>
<path d="M515.9 211.232H539.35V234.682H515.9V211.232Z" fill="#E9E9E9"/>
<path d="M515.9 234.682H539.35V258.132H515.9V234.682Z" fill="#E9E9E9"/>
<path d="M515.9 258.132H539.35V281.582H515.9V258.132Z" fill="#E9E9E9"/>
<path d="M515.9 281.582H539.35V305.032H515.9V281.582Z" fill="#E9E9E9"/>
<path d="M515.9 305.032H539.35V328.482H515.9V305.032Z" fill="#E9E9E9"/>
<path d="M515.9 328.482H539.35V351.932H515.9V328.482Z" fill="#E9E9E9"/>
<path d="M515.9 351.932H539.35V375.382H515.9V351.932Z" fill="#E9E9E9"/>
<path d="M515.9 375.382H539.35V398.832H515.9V375.382Z" fill="#E9E9E9"/>
<path d="M515.9 398.832H539.35V422.282H515.9V398.832Z" fill="#E9E9E9"/>
<path d="M515.9 422.282H539.35V445.732H515.9V422.282Z" fill="#E9E9E9"/>
<path d="M515.9 445.732H539.35V469.182H515.9V445.732Z" fill="#E9E9E9"/>
<path d="M539.35 0.181641H562.8V23.6316H539.35V0.181641Z" fill="#E9E9E9"/>
<path d="M539.35 47.0816H562.8V70.5316H539.35V47.0816Z" fill="#E9E9E9"/>
<path d="M539.35 187.782H562.8V211.232H539.35V187.782Z" fill="#E9E9E9"/>
<path d="M539.35 211.232H562.8V234.682H539.35V211.232Z" fill="#E9E9E9"/>
<path d="M539.35 234.682H562.8V258.132H539.35V234.682Z" fill="#E9E9E9"/>
<path d="M539.35 258.132H562.8V281.582H539.35V258.132Z" fill="#E9E9E9"/>
<path d="M539.35 281.582H562.8V305.032H539.35V281.582Z" fill="#E9E9E9"/>
<path d="M539.35 305.032H562.8V328.482H539.35V305.032Z" fill="#E9E9E9"/>
<path d="M539.35 328.482H562.8V351.932H539.35V328.482Z" fill="#E9E9E9"/>
<path d="M539.35 351.932H562.8V375.382H539.35V351.932Z" fill="#E9E9E9"/>
<path d="M539.35 375.382H562.8V398.832H539.35V375.382Z" fill="#E9E9E9"/>
<path d="M539.35 398.832H562.8V422.282H539.35V398.832Z" fill="#E9E9E9"/>
<path d="M539.35 422.282H562.8V445.732H539.35V422.282Z" fill="#E9E9E9"/>
<path d="M539.35 445.732H562.8V469.182H539.35V445.732Z" fill="#E9E9E9"/>
<path d="M562.8 0.181641H586.25V23.6316H562.8V0.181641Z" fill="#E9E9E9"/>
<path d="M562.8 47.0816H586.25V70.5316H562.8V47.0816Z" fill="#E9E9E9"/>
<path d="M562.8 187.782H586.25V211.232H562.8V187.782Z" fill="#E9E9E9"/>
<path d="M562.8 211.232H586.25V234.682H562.8V211.232Z" fill="#E9E9E9"/>
<path d="M562.8 234.682H586.25V258.132H562.8V234.682Z" fill="#E9E9E9"/>
<path d="M562.8 258.132H586.25V281.582H562.8V258.132Z" fill="#E9E9E9"/>
<path d="M562.8 281.582H586.25V305.032H562.8V281.582Z" fill="#E9E9E9"/>
<path d="M562.8 305.032H586.25V328.482H562.8V305.032Z" fill="#E9E9E9"/>
<path d="M562.8 328.482H586.25V351.932H562.8V328.482Z" fill="#E9E9E9"/>
<path d="M562.8 351.932H586.25V375.382H562.8V351.932Z" fill="#E9E9E9"/>
<path d="M562.8 375.382H586.25V398.832H562.8V375.382Z" fill="#E9E9E9"/>
<path d="M562.8 398.832H586.25V422.282H562.8V398.832Z" fill="#E9E9E9"/>
<path d="M562.8 422.282H586.25V445.732H562.8V422.282Z" fill="#E9E9E9"/>
<path d="M562.8 445.732H586.25V469.182H562.8V445.732Z" fill="#E9E9E9"/>
<path d="M586.25 0.181641H609.7V23.6316H586.25V0.181641Z" fill="#E9E9E9"/>
<path d="M586.25 23.6316H609.7V47.0816H586.25V23.6316Z" fill="#E9E9E9"/>
<path d="M586.25 47.0816H609.7V70.5316H586.25V47.0816Z" fill="#E9E9E9"/>
<path d="M586.25 187.782H609.7V211.232H586.25V187.782Z" fill="#E9E9E9"/>
<path d="M586.25 211.232H609.7V234.682H586.25V211.232Z" fill="#E9E9E9"/>
<path d="M586.25 234.682H609.7V258.132H586.25V234.682Z" fill="#E9E9E9"/>
<path d="M586.25 258.132H609.7V281.582H586.25V258.132Z" fill="#E9E9E9"/>
<path d="M586.25 281.582H609.7V305.032H586.25V281.582Z" fill="#E9E9E9"/>
<path d="M586.25 305.032H609.7V328.482H586.25V305.032Z" fill="#E9E9E9"/>
<path d="M586.25 328.482H609.7V351.932H586.25V328.482Z" fill="#E9E9E9"/>
<path d="M586.25 351.932H609.7V375.382H586.25V351.932Z" fill="#E9E9E9"/>
<path d="M586.25 375.382H609.7V398.832H586.25V375.382Z" fill="#E9E9E9"/>
<path d="M586.25 398.832H609.7V422.282H586.25V398.832Z" fill="#E9E9E9"/>
<path d="M586.25 422.282H609.7V445.732H586.25V422.282Z" fill="#E9E9E9"/>
<path d="M586.25 445.732H609.7V469.182H586.25V445.732Z" fill="#E9E9E9"/>
<path d="M609.7 0.181641H633.15V23.6316H609.7V0.181641Z" fill="#E9E9E9"/>
<path d="M609.7 23.6316H633.15V47.0816H609.7V23.6316Z" fill="#E9E9E9"/>
<path d="M609.7 47.0816H633.15V70.5316H609.7V47.0816Z" fill="#E9E9E9"/>
<path d="M609.7 187.782H633.15V211.232H609.7V187.782Z" fill="#E9E9E9"/>
<path d="M609.7 211.232H633.15V234.682H609.7V211.232Z" fill="#E9E9E9"/>
<path d="M609.7 234.682H633.15V258.132H609.7V234.682Z" fill="#E9E9E9"/>
<path d="M609.7 258.132H633.15V281.582H609.7V258.132Z" fill="#E9E9E9"/>
<path d="M609.7 281.582H633.15V305.032H609.7V281.582Z" fill="#E9E9E9"/>
<path d="M609.7 305.032H633.15V328.482H609.7V305.032Z" fill="#E9E9E9"/>
<path d="M609.7 328.482H633.15V351.932H609.7V328.482Z" fill="#E9E9E9"/>
<path d="M609.7 351.932H633.15V375.382H609.7V351.932Z" fill="#E9E9E9"/>
<path d="M609.7 375.382H633.15V398.832H609.7V375.382Z" fill="#E9E9E9"/>
<path d="M609.7 398.832H633.15V422.282H609.7V398.832Z" fill="#E9E9E9"/>
<path d="M609.7 422.282H633.15V445.732H609.7V422.282Z" fill="#E9E9E9"/>
<path d="M609.7 445.732H633.15V469.182H609.7V445.732Z" fill="#E9E9E9"/>
<path d="M633.15 0.181641H656.6V23.6316H633.15V0.181641Z" fill="#E9E9E9"/>
<path d="M633.15 23.6316H656.6V47.0816H633.15V23.6316Z" fill="#E9E9E9"/>
<path d="M633.15 47.0816H656.6V70.5316H633.15V47.0816Z" fill="#E9E9E9"/>
<path d="M633.15 187.782H656.6V211.232H633.15V187.782Z" fill="#E9E9E9"/>
<path d="M633.15 211.232H656.6V234.682H633.15V211.232Z" fill="#E9E9E9"/>
<path d="M633.15 234.682H656.6V258.132H633.15V234.682Z" fill="#E9E9E9"/>
<path d="M633.15 258.132H656.6V281.582H633.15V258.132Z" fill="#E9E9E9"/>
<path d="M633.15 281.582H656.6V305.032H633.15V281.582Z" fill="#E9E9E9"/>
<path d="M633.15 305.032H656.6V328.482H633.15V305.032Z" fill="#E9E9E9"/>
<path d="M633.15 328.482H656.6V351.932H633.15V328.482Z" fill="#E9E9E9"/>
<path d="M633.15 351.932H656.6V375.382H633.15V351.932Z" fill="#E9E9E9"/>
<path d="M633.15 375.382H656.6V398.832H633.15V375.382Z" fill="#E9E9E9"/>
<path d="M633.15 398.832H656.6V422.282H633.15V398.832Z" fill="#E9E9E9"/>
<path d="M633.15 422.282H656.6V445.732H633.15V422.282Z" fill="#E9E9E9"/>
<path d="M633.15 445.732H656.6V469.182H633.15V445.732Z" fill="#E9E9E9"/>
<path d="M656.6 0.181641H680.05V23.6316H656.6V0.181641Z" fill="#E9E9E9"/>
<path d="M656.6 23.6316H680.05V47.0816H656.6V23.6316Z" fill="#E9E9E9"/>
<path d="M656.6 47.0816H680.05V70.5316H656.6V47.0816Z" fill="#E9E9E9"/>
<path d="M656.6 187.782H680.05V211.232H656.6V187.782Z" fill="#E9E9E9"/>
<path d="M656.6 211.232H680.05V234.682H656.6V211.232Z" fill="#E9E9E9"/>
<path d="M656.6 234.682H680.05V258.132H656.6V234.682Z" fill="#E9E9E9"/>
<path d="M656.6 258.132H680.05V281.582H656.6V258.132Z" fill="#E9E9E9"/>
<path d="M656.6 281.582H680.05V305.032H656.6V281.582Z" fill="#E9E9E9"/>
<path d="M656.6 305.032H680.05V328.482H656.6V305.032Z" fill="#E9E9E9"/>
<path d="M656.6 328.482H680.05V351.932H656.6V328.482Z" fill="#E9E9E9"/>
<path d="M656.6 351.932H680.05V375.382H656.6V351.932Z" fill="#E9E9E9"/>
<path d="M656.6 375.382H680.05V398.832H656.6V375.382Z" fill="#E9E9E9"/>
<path d="M656.6 398.832H680.05V422.282H656.6V398.832Z" fill="#E9E9E9"/>
<path d="M656.6 422.282H680.05V445.732H656.6V422.282Z" fill="#E9E9E9"/>
<path d="M656.6 445.732H680.05V469.182H656.6V445.732Z" fill="#E9E9E9"/>
<path d="M680.05 0.181641H703.5V23.6316H680.05V0.181641Z" fill="#E9E9E9"/>
<path d="M680.05 23.6316H703.5V47.0816H680.05V23.6316Z" fill="#E9E9E9"/>
<path d="M680.05 47.0816H703.5V70.5316H680.05V47.0816Z" fill="#E9E9E9"/>
<path d="M680.05 187.782H703.5V211.232H680.05V187.782Z" fill="#E9E9E9"/>
<path d="M680.05 211.232H703.5V234.682H680.05V211.232Z" fill="#E9E9E9"/>
<path d="M680.05 234.682H703.5V258.132H680.05V234.682Z" fill="#E9E9E9"/>
<path d="M680.05 258.132H703.5V281.582H680.05V258.132Z" fill="#E9E9E9"/>
<path d="M680.05 281.582H703.5V305.032H680.05V281.582Z" fill="#E9E9E9"/>
<path d="M680.05 305.032H703.5V328.482H680.05V305.032Z" fill="#E9E9E9"/>
<path d="M680.05 328.482H703.5V351.932H680.05V328.482Z" fill="#E9E9E9"/>
<path d="M680.05 351.932H703.5V375.382H680.05V351.932Z" fill="#E9E9E9"/>
<path d="M680.05 375.382H703.5V398.832H680.05V375.382Z" fill="#E9E9E9"/>
<path d="M680.05 398.832H703.5V422.282H680.05V398.832Z" fill="#E9E9E9"/>
<path d="M680.05 422.282H703.5V445.732H680.05V422.282Z" fill="#E9E9E9"/>
<path d="M680.05 445.732H703.5V469.182H680.05V445.732Z" fill="#E9E9E9"/>
<path d="M703.5 0.181641H726.95V23.6316H703.5V0.181641Z" fill="#E9E9E9"/>
<path d="M703.5 23.6316H726.95V47.0816H703.5V23.6316Z" fill="#E9E9E9"/>
<path d="M703.5 47.0816H726.95V70.5316H703.5V47.0816Z" fill="#E9E9E9"/>
<path d="M703.5 140.882H726.95V164.332H703.5V140.882Z" fill="#E9E9E9"/>
<path d="M703.5 164.332H726.95V187.782H703.5V164.332Z" fill="#E9E9E9"/>
<path d="M703.5 187.782H726.95V211.232H703.5V187.782Z" fill="#E9E9E9"/>
<path d="M703.5 211.232H726.95V234.682H703.5V211.232Z" fill="#E9E9E9"/>
<path d="M703.5 234.682H726.95V258.132H703.5V234.682Z" fill="#E9E9E9"/>
<path d="M703.5 258.132H726.95V281.582H703.5V258.132Z" fill="#E9E9E9"/>
<path d="M703.5 281.582H726.95V305.032H703.5V281.582Z" fill="#E9E9E9"/>
<path d="M703.5 305.032H726.95V328.482H703.5V305.032Z" fill="#E9E9E9"/>
<path d="M703.5 328.482H726.95V351.932H703.5V328.482Z" fill="#E9E9E9"/>
<path d="M703.5 351.932H726.95V375.382H703.5V351.932Z" fill="#E9E9E9"/>
<path d="M703.5 375.382H726.95V398.832H703.5V375.382Z" fill="#E9E9E9"/>
<path d="M703.5 398.832H726.95V422.282H703.5V398.832Z" fill="#E9E9E9"/>
<path d="M703.5 422.282H726.95V445.732H703.5V422.282Z" fill="#E9E9E9"/>
<path d="M703.5 445.732H726.95V469.182H703.5V445.732Z" fill="#E9E9E9"/>
<path d="M726.95 0.181641H750.4V23.6316H726.95V0.181641Z" fill="#E9E9E9"/>
<path d="M726.95 23.6316H750.4V47.0816H726.95V23.6316Z" fill="#E9E9E9"/>
<path d="M726.95 47.0816H750.4V70.5316H726.95V47.0816Z" fill="#E9E9E9"/>
<path d="M726.95 140.882H750.4V164.332H726.95V140.882Z" fill="#E9E9E9"/>
<path d="M726.95 164.332H750.4V187.782H726.95V164.332Z" fill="#E9E9E9"/>
<path d="M726.95 187.782H750.4V211.232H726.95V187.782Z" fill="#E9E9E9"/>
<path d="M726.95 211.232H750.4V234.682H726.95V211.232Z" fill="#E9E9E9"/>
<path d="M726.95 234.682H750.4V258.132H726.95V234.682Z" fill="#E9E9E9"/>
<path d="M726.95 258.132H750.4V281.582H726.95V258.132Z" fill="#E9E9E9"/>
<path d="M726.95 281.582H750.4V305.032H726.95V281.582Z" fill="#E9E9E9"/>
<path d="M726.95 305.032H750.4V328.482H726.95V305.032Z" fill="#E9E9E9"/>
<path d="M726.95 328.482H750.4V351.932H726.95V328.482Z" fill="#E9E9E9"/>
<path d="M726.95 351.932H750.4V375.382H726.95V351.932Z" fill="#E9E9E9"/>
<path d="M726.95 375.382H750.4V398.832H726.95V375.382Z" fill="#E9E9E9"/>
<path d="M726.95 398.832H750.4V422.282H726.95V398.832Z" fill="#E9E9E9"/>
<path d="M726.95 422.282H750.4V445.732H726.95V422.282Z" fill="#E9E9E9"/>
<path d="M726.95 445.732H750.4V469.182H726.95V445.732Z" fill="#E9E9E9"/>
<path d="M750.4 0.181641H773.85V23.6316H750.4V0.181641Z" fill="#E9E9E9"/>
<path d="M750.4 23.6316H773.85V47.0816H750.4V23.6316Z" fill="#E9E9E9"/>
<path d="M750.4 47.0816H773.85V70.5316H750.4V47.0816Z" fill="#E9E9E9"/>
<path d="M750.4 140.882H773.85V164.332H750.4V140.882Z" fill="#E9E9E9"/>
<path d="M750.4 164.332H773.85V187.782H750.4V164.332Z" fill="#E9E9E9"/>
<path d="M750.4 187.782H773.85V211.232H750.4V187.782Z" fill="#E9E9E9"/>
<path d="M750.4 211.232H773.85V234.682H750.4V211.232Z" fill="#E9E9E9"/>
<path d="M750.4 234.682H773.85V258.132H750.4V234.682Z" fill="#E9E9E9"/>
<path d="M750.4 258.132H773.85V281.582H750.4V258.132Z" fill="#E9E9E9"/>
<path d="M750.4 281.582H773.85V305.032H750.4V281.582Z" fill="#E9E9E9"/>
<path d="M750.4 305.032H773.85V328.482H750.4V305.032Z" fill="#E9E9E9"/>
<path d="M750.4 328.482H773.85V351.932H750.4V328.482Z" fill="#E9E9E9"/>
<path d="M750.4 351.932H773.85V375.382H750.4V351.932Z" fill="#E9E9E9"/>
<path d="M750.4 375.382H773.85V398.832H750.4V375.382Z" fill="#E9E9E9"/>
<path d="M750.4 398.832H773.85V422.282H750.4V398.832Z" fill="#E9E9E9"/>
<path d="M750.4 422.282H773.85V445.732H750.4V422.282Z" fill="#E9E9E9"/>
<path d="M750.4 445.732H773.85V469.182H750.4V445.732Z" fill="#E9E9E9"/>
<path d="M773.85 0.181641H797.3V23.6316H773.85V0.181641Z" fill="#E9E9E9"/>
<path d="M773.85 23.6316H797.3V47.0816H773.85V23.6316Z" fill="#E9E9E9"/>
<path d="M773.85 47.0816H797.3V70.5316H773.85V47.0816Z" fill="#E9E9E9"/>
<path d="M773.85 70.5316H797.3V93.9816H773.85V70.5316Z" fill="#E9E9E9"/>
<path d="M773.85 93.9816H797.3V117.432H773.85V93.9816Z" fill="#E9E9E9"/>
<path d="M773.85 117.432H797.3V140.882H773.85V117.432Z" fill="#E9E9E9"/>
<path d="M773.85 140.882H797.3V164.332H773.85V140.882Z" fill="#E9E9E9"/>
<path d="M773.85 164.332H797.3V187.782H773.85V164.332Z" fill="#E9E9E9"/>
<path d="M773.85 187.782H797.3V211.232H773.85V187.782Z" fill="#E9E9E9"/>
<path d="M773.85 211.232H797.3V234.682H773.85V211.232Z" fill="#E9E9E9"/>
<path d="M773.85 234.682H797.3V258.132H773.85V234.682Z" fill="#E9E9E9"/>
<path d="M773.85 258.132H797.3V281.582H773.85V258.132Z" fill="#E9E9E9"/>
<path d="M773.85 281.582H797.3V305.032H773.85V281.582Z" fill="#E9E9E9"/>
<path d="M773.85 305.032H797.3V328.482H773.85V305.032Z" fill="#E9E9E9"/>
<path d="M773.85 328.482H797.3V351.932H773.85V328.482Z" fill="#E9E9E9"/>
<path d="M773.85 351.932H797.3V375.382H773.85V351.932Z" fill="#E9E9E9"/>
<path d="M773.85 375.382H797.3V398.832H773.85V375.382Z" fill="#E9E9E9"/>
<path d="M773.85 398.832H797.3V422.282H773.85V398.832Z" fill="#E9E9E9"/>
<path d="M773.85 422.282H797.3V445.732H773.85V422.282Z" fill="#E9E9E9"/>
<path d="M773.85 445.732H797.3V469.182H773.85V445.732Z" fill="#E9E9E9"/>
<path d="M797.3 0.181641H820.75V23.6316H797.3V0.181641Z" fill="#E9E9E9"/>
<path d="M797.3 23.6316H820.75V47.0816H797.3V23.6316Z" fill="#E9E9E9"/>
<path d="M797.3 47.0816H820.75V70.5316H797.3V47.0816Z" fill="#E9E9E9"/>
<path d="M797.3 70.5316H820.75V93.9816H797.3V70.5316Z" fill="#E9E9E9"/>
<path d="M797.3 93.9816H820.75V117.432H797.3V93.9816Z" fill="#E9E9E9"/>
<path d="M797.3 117.432H820.75V140.882H797.3V117.432Z" fill="#E9E9E9"/>
<path d="M797.3 140.882H820.75V164.332H797.3V140.882Z" fill="#E9E9E9"/>
<path d="M797.3 164.332H820.75V187.782H797.3V164.332Z" fill="#E9E9E9"/>
<path d="M797.3 187.782H820.75V211.232H797.3V187.782Z" fill="#E9E9E9"/>
<path d="M797.3 211.232H820.75V234.682H797.3V211.232Z" fill="#E9E9E9"/>
<path d="M797.3 234.682H820.75V258.132H797.3V234.682Z" fill="#E9E9E9"/>
<path d="M797.3 258.132H820.75V281.582H797.3V258.132Z" fill="#E9E9E9"/>
<path d="M797.3 281.582H820.75V305.032H797.3V281.582Z" fill="#E9E9E9"/>
<path d="M797.3 305.032H820.75V328.482H797.3V305.032Z" fill="#E9E9E9"/>
<path d="M797.3 328.482H820.75V351.932H797.3V328.482Z" fill="#E9E9E9"/>
<path d="M797.3 351.932H820.75V375.382H797.3V351.932Z" fill="#E9E9E9"/>
<path d="M797.3 375.382H820.75V398.832H797.3V375.382Z" fill="#E9E9E9"/>
<path d="M797.3 398.832H820.75V422.282H797.3V398.832Z" fill="#E9E9E9"/>
<path d="M797.3 422.282H820.75V445.732H797.3V422.282Z" fill="#E9E9E9"/>
<path d="M797.3 445.732H820.75V469.182H797.3V445.732Z" fill="#E9E9E9"/>
<path d="M820.75 0.181641H844.2V23.6316H820.75V0.181641Z" fill="#E9E9E9"/>
<path d="M820.75 23.6316H844.2V47.0816H820.75V23.6316Z" fill="#E9E9E9"/>
<path d="M820.75 47.0816H844.2V70.5316H820.75V47.0816Z" fill="#E9E9E9"/>
<path d="M820.75 70.5316H844.2V93.9816H820.75V70.5316Z" fill="#E9E9E9"/>
<path d="M820.75 93.9816H844.2V117.432H820.75V93.9816Z" fill="#E9E9E9"/>
<path d="M820.75 117.432H844.2V140.882H820.75V117.432Z" fill="#E9E9E9"/>
<path d="M820.75 140.882H844.2V164.332H820.75V140.882Z" fill="#E9E9E9"/>
<path d="M820.75 164.332H844.2V187.782H820.75V164.332Z" fill="#E9E9E9"/>
<path d="M820.75 187.782H844.2V211.232H820.75V187.782Z" fill="#E9E9E9"/>
<path d="M820.75 211.232H844.2V234.682H820.75V211.232Z" fill="#E9E9E9"/>
<path d="M820.75 234.682H844.2V258.132H820.75V234.682Z" fill="#E9E9E9"/>
<path d="M820.75 258.132H844.2V281.582H820.75V258.132Z" fill="#E9E9E9"/>
<path d="M820.75 281.582H844.2V305.032H820.75V281.582Z" fill="#E9E9E9"/>
<path d="M820.75 305.032H844.2V328.482H820.75V305.032Z" fill="#E9E9E9"/>
<path d="M820.75 328.482H844.2V351.932H820.75V328.482Z" fill="#E9E9E9"/>
<path d="M820.75 351.932H844.2V375.382H820.75V351.932Z" fill="#E9E9E9"/>
<path d="M820.75 375.382H844.2V398.832H820.75V375.382Z" fill="#E9E9E9"/>
<path d="M820.75 398.832H844.2V422.282H820.75V398.832Z" fill="#E9E9E9"/>
<path d="M820.75 422.282H844.2V445.732H820.75V422.282Z" fill="#E9E9E9"/>
<path d="M820.75 445.732H844.2V469.182H820.75V445.732Z" fill="#E9E9E9"/>
<path d="M844.2 0.181641H867.65V23.6316H844.2V0.181641Z" fill="#E9E9E9"/>
<path d="M844.2 23.6316H867.65V47.0816H844.2V23.6316Z" fill="#E9E9E9"/>
<path d="M844.2 47.0816H867.65V70.5316H844.2V47.0816Z" fill="#E9E9E9"/>
<path d="M844.2 70.5316H867.65V93.9816H844.2V70.5316Z" fill="#E9E9E9"/>
<path d="M844.2 93.9816H867.65V117.432H844.2V93.9816Z" fill="#E9E9E9"/>
<path d="M844.2 117.432H867.65V140.882H844.2V117.432Z" fill="#E9E9E9"/>
<path d="M844.2 140.882H867.65V164.332H844.2V140.882Z" fill="#E9E9E9"/>
<path d="M844.2 187.782H867.65V211.232H844.2V187.782Z" fill="#E9E9E9"/>
<path d="M844.2 211.232H867.65V234.682H844.2V211.232Z" fill="#E9E9E9"/>
<path d="M844.2 234.682H867.65V258.132H844.2V234.682Z" fill="#E9E9E9"/>
<path d="M844.2 258.132H867.65V281.582H844.2V258.132Z" fill="#E9E9E9"/>
<path d="M844.2 281.582H867.65V305.032H844.2V281.582Z" fill="#E9E9E9"/>
<path d="M844.2 305.032H867.65V328.482H844.2V305.032Z" fill="#E9E9E9"/>
<path d="M844.2 328.482H867.65V351.932H844.2V328.482Z" fill="#E9E9E9"/>
<path d="M844.2 351.932H867.65V375.382H844.2V351.932Z" fill="#E9E9E9"/>
<path d="M844.2 375.382H867.65V398.832H844.2V375.382Z" fill="#E9E9E9"/>
<path d="M844.2 398.832H867.65V422.282H844.2V398.832Z" fill="#E9E9E9"/>
<path d="M844.2 422.282H867.65V445.732H844.2V422.282Z" fill="#E9E9E9"/>
<path d="M844.2 445.732H867.65V469.182H844.2V445.732Z" fill="#E9E9E9"/>
<path d="M867.65 0.181641H891.1V23.6316H867.65V0.181641Z" fill="#E9E9E9"/>
<path d="M867.65 23.6316H891.1V47.0816H867.65V23.6316Z" fill="#E9E9E9"/>
<path d="M867.65 47.0816H891.1V70.5316H867.65V47.0816Z" fill="#E9E9E9"/>
<path d="M867.65 70.5316H891.1V93.9816H867.65V70.5316Z" fill="#E9E9E9"/>
<path d="M867.65 93.9816H891.1V117.432H867.65V93.9816Z" fill="#E9E9E9"/>
<path d="M867.65 117.432H891.1V140.882H867.65V117.432Z" fill="#E9E9E9"/>
<path d="M867.65 140.882H891.1V164.332H867.65V140.882Z" fill="#E9E9E9"/>
<path d="M867.65 187.782H891.1V211.232H867.65V187.782Z" fill="#E9E9E9"/>
<path d="M867.65 211.232H891.1V234.682H867.65V211.232Z" fill="#E9E9E9"/>
<path d="M867.65 234.682H891.1V258.132H867.65V234.682Z" fill="#E9E9E9"/>
<path d="M867.65 258.132H891.1V281.582H867.65V258.132Z" fill="#E9E9E9"/>
<path d="M867.65 281.582H891.1V305.032H867.65V281.582Z" fill="#E9E9E9"/>
<path d="M867.65 305.032H891.1V328.482H867.65V305.032Z" fill="#E9E9E9"/>
<path d="M867.65 328.482H891.1V351.932H867.65V328.482Z" fill="#E9E9E9"/>
<path d="M867.65 351.932H891.1V375.382H867.65V351.932Z" fill="#E9E9E9"/>
<path d="M867.65 375.382H891.1V398.832H867.65V375.382Z" fill="#E9E9E9"/>
<path d="M867.65 398.832H891.1V422.282H867.65V398.832Z" fill="#E9E9E9"/>
<path d="M867.65 422.282H891.1V445.732H867.65V422.282Z" fill="#E9E9E9"/>
<path d="M867.65 445.732H891.1V469.182H867.65V445.732Z" fill="#E9E9E9"/>
<path d="M891.1 0.181641H914.55V23.6316H891.1V0.181641Z" fill="#E9E9E9"/>
<path d="M891.1 23.6316H914.55V47.0816H891.1V23.6316Z" fill="#E9E9E9"/>
<path d="M891.1 47.0816H914.55V70.5316H891.1V47.0816Z" fill="#E9E9E9"/>
<path d="M891.1 70.5316H914.55V93.9816H891.1V70.5316Z" fill="#E9E9E9"/>
<path d="M891.1 93.9816H914.55V117.432H891.1V93.9816Z" fill="#E9E9E9"/>
<path d="M891.1 117.432H914.55V140.882H891.1V117.432Z" fill="#E9E9E9"/>
<path d="M891.1 140.882H914.55V164.332H891.1V140.882Z" fill="#E9E9E9"/>
<path d="M891.1 164.332H914.55V187.782H891.1V164.332Z" fill="#E9E9E9"/>
<path d="M891.1 187.782H914.55V211.232H891.1V187.782Z" fill="#E9E9E9"/>
<path d="M891.1 211.232H914.55V234.682H891.1V211.232Z" fill="#E9E9E9"/>
<path d="M891.1 234.682H914.55V258.132H891.1V234.682Z" fill="#E9E9E9"/>
<path d="M891.1 258.132H914.55V281.582H891.1V258.132Z" fill="#E9E9E9"/>
<path d="M891.1 281.582H914.55V305.032H891.1V281.582Z" fill="#E9E9E9"/>
<path d="M891.1 305.032H914.55V328.482H891.1V305.032Z" fill="#E9E9E9"/>
<path d="M891.1 328.482H914.55V351.932H891.1V328.482Z" fill="#E9E9E9"/>
<path d="M891.1 351.932H914.55V375.382H891.1V351.932Z" fill="#E9E9E9"/>
<path d="M891.1 375.382H914.55V398.832H891.1V375.382Z" fill="#E9E9E9"/>
<path d="M891.1 398.832H914.55V422.282H891.1V398.832Z" fill="#E9E9E9"/>
<path d="M891.1 422.282H914.55V445.732H891.1V422.282Z" fill="#E9E9E9"/>
<path d="M891.1 445.732H914.55V469.182H891.1V445.732Z" fill="#E9E9E9"/>
<path d="M914.55 0.181641H938V23.6316H914.55V0.181641Z" fill="#E9E9E9"/>
<path d="M914.55 23.6316H938V47.0816H914.55V23.6316Z" fill="#E9E9E9"/>
<path d="M914.55 47.0816H938V70.5316H914.55V47.0816Z" fill="#E9E9E9"/>
<path d="M914.55 70.5316H938V93.9816H914.55V70.5316Z" fill="#E9E9E9"/>
<path d="M914.55 93.9816H938V117.432H914.55V93.9816Z" fill="#E9E9E9"/>
<path d="M914.55 117.432H938V140.882H914.55V117.432Z" fill="#E9E9E9"/>
<path d="M914.55 140.882H938V164.332H914.55V140.882Z" fill="#E9E9E9"/>
<path d="M914.55 164.332H938V187.782H914.55V164.332Z" fill="#E9E9E9"/>
<path d="M914.55 187.782H938V211.232H914.55V187.782Z" fill="#E9E9E9"/>
<path d="M914.55 211.232H938V234.682H914.55V211.232Z" fill="#E9E9E9"/>
<path d="M914.55 234.682H938V258.132H914.55V234.682Z" fill="#E9E9E9"/>
<path d="M914.55 258.132H938V281.582H914.55V258.132Z" fill="#E9E9E9"/>
<path d="M914.55 281.582H938V305.032H914.55V281.582Z" fill="#E9E9E9"/>
<path d="M914.55 305.032H938V328.482H914.55V305.032Z" fill="#E9E9E9"/>
<path d="M914.55 328.482H938V351.932H914.55V328.482Z" fill="#E9E9E9"/>
<path d="M914.55 351.932H938V375.382H914.55V351.932Z" fill="#E9E9E9"/>
<path d="M914.55 375.382H938V398.832H914.55V375.382Z" fill="#E9E9E9"/>
<path d="M914.55 398.832H938V422.282H914.55V398.832Z" fill="#E9E9E9"/>
<path d="M914.55 422.282H938V445.732H914.55V422.282Z" fill="#E9E9E9"/>
<path d="M914.55 445.732H938V469.182H914.55V445.732Z" fill="#E9E9E9"/>
<path d="M938 0.181641H961.45V23.6316H938V0.181641Z" fill="#E9E9E9"/>
<path d="M938 23.6316H961.45V47.0816H938V23.6316Z" fill="#E9E9E9"/>
<path d="M938 47.0816H961.45V70.5316H938V47.0816Z" fill="#E9E9E9"/>
<path d="M938 70.5316H961.45V93.9816H938V70.5316Z" fill="#E9E9E9"/>
<path d="M938 93.9816H961.45V117.432H938V93.9816Z" fill="#E9E9E9"/>
<path d="M938 117.432H961.45V140.882H938V117.432Z" fill="#E9E9E9"/>
<path d="M938 140.882H961.45V164.332H938V140.882Z" fill="#E9E9E9"/>
<path d="M938 164.332H961.45V187.782H938V164.332Z" fill="#E9E9E9"/>
<path d="M938 187.782H961.45V211.232H938V187.782Z" fill="#E9E9E9"/>
<path d="M938 211.232H961.45V234.682H938V211.232Z" fill="#E9E9E9"/>
<path d="M938 234.682H961.45V258.132H938V234.682Z" fill="#E9E9E9"/>
<path d="M938 258.132H961.45V281.582H938V258.132Z" fill="#E9E9E9"/>
<path d="M938 281.582H961.45V305.032H938V281.582Z" fill="#E9E9E9"/>
<path d="M938 305.032H961.45V328.482H938V305.032Z" fill="#E9E9E9"/>
<path d="M938 328.482H961.45V351.932H938V328.482Z" fill="#E9E9E9"/>
<path d="M938 351.932H961.45V375.382H938V351.932Z" fill="#E9E9E9"/>
<path d="M938 375.382H961.45V398.832H938V375.382Z" fill="#E9E9E9"/>
<path d="M938 398.832H961.45V422.282H938V398.832Z" fill="#E9E9E9"/>
<path d="M938 422.282H961.45V445.732H938V422.282Z" fill="#E9E9E9"/>
<path d="M938 445.732H961.45V469.182H938V445.732Z" fill="#E9E9E9"/>
<path d="M961.45 0.181641H984.9V23.6316H961.45V0.181641Z" fill="#E9E9E9"/>
<path d="M961.45 23.6316H984.9V47.0816H961.45V23.6316Z" fill="#E9E9E9"/>
<path d="M961.45 47.0816H984.9V70.5316H961.45V47.0816Z" fill="#E9E9E9"/>
<path d="M961.45 70.5316H984.9V93.9816H961.45V70.5316Z" fill="#E9E9E9"/>
<path d="M961.45 93.9816H984.9V117.432H961.45V93.9816Z" fill="#E9E9E9"/>
<path d="M961.45 117.432H984.9V140.882H961.45V117.432Z" fill="#E9E9E9"/>
<path d="M961.45 140.882H984.9V164.332H961.45V140.882Z" fill="#E9E9E9"/>
<path d="M961.45 164.332H984.9V187.782H961.45V164.332Z" fill="#E9E9E9"/>
<path d="M961.45 187.782H984.9V211.232H961.45V187.782Z" fill="#E9E9E9"/>
<path d="M961.45 211.232H984.9V234.682H961.45V211.232Z" fill="#E9E9E9"/>
<path d="M961.45 234.682H984.9V258.132H961.45V234.682Z" fill="#E9E9E9"/>
<path d="M961.45 258.132H984.9V281.582H961.45V258.132Z" fill="#E9E9E9"/>
<path d="M961.45 281.582H984.9V305.032H961.45V281.582Z" fill="#E9E9E9"/>
<path d="M961.45 305.032H984.9V328.482H961.45V305.032Z" fill="#E9E9E9"/>
<path d="M961.45 328.482H984.9V351.932H961.45V328.482Z" fill="#E9E9E9"/>
<path d="M961.45 351.932H984.9V375.382H961.45V351.932Z" fill="#E9E9E9"/>
<path d="M961.45 375.382H984.9V398.832H961.45V375.382Z" fill="#E9E9E9"/>
<path d="M961.45 398.832H984.9V422.282H961.45V398.832Z" fill="#E9E9E9"/>
<path d="M961.45 422.282H984.9V445.732H961.45V422.282Z" fill="#E9E9E9"/>
<path d="M961.45 445.732H984.9V469.182H961.45V445.732Z" fill="#E9E9E9"/>
<path d="M984.9 0.181641H1008.35V23.6316H984.9V0.181641Z" fill="#E9E9E9"/>
<path d="M984.9 23.6316H1008.35V47.0816H984.9V23.6316Z" fill="#E9E9E9"/>
<path d="M984.9 47.0816H1008.35V70.5316H984.9V47.0816Z" fill="#E9E9E9"/>
<path d="M984.9 70.5316H1008.35V93.9816H984.9V70.5316Z" fill="#E9E9E9"/>
<path d="M984.9 93.9816H1008.35V117.432H984.9V93.9816Z" fill="#E9E9E9"/>
<path d="M984.9 117.432H1008.35V140.882H984.9V117.432Z" fill="#E9E9E9"/>
<path d="M984.9 140.882H1008.35V164.332H984.9V140.882Z" fill="#E9E9E9"/>
<path d="M984.9 164.332H1008.35V187.782H984.9V164.332Z" fill="#E9E9E9"/>
<path d="M984.9 187.782H1008.35V211.232H984.9V187.782Z" fill="#E9E9E9"/>
<path d="M984.9 211.232H1008.35V234.682H984.9V211.232Z" fill="#E9E9E9"/>
<path d="M984.9 234.682H1008.35V258.132H984.9V234.682Z" fill="#E9E9E9"/>
<path d="M984.9 258.132H1008.35V281.582H984.9V258.132Z" fill="#E9E9E9"/>
<path d="M984.9 281.582H1008.35V305.032H984.9V281.582Z" fill="#E9E9E9"/>
<path d="M984.9 305.032H1008.35V328.482H984.9V305.032Z" fill="#E9E9E9"/>
<path d="M984.9 328.482H1008.35V351.932H984.9V328.482Z" fill="#E9E9E9"/>
<path d="M984.9 351.932H1008.35V375.382H984.9V351.932Z" fill="#E9E9E9"/>
<path d="M984.9 375.382H1008.35V398.832H984.9V375.382Z" fill="#E9E9E9"/>
<path d="M984.9 398.832H1008.35V422.282H984.9V398.832Z" fill="#E9E9E9"/>
<path d="M984.9 422.282H1008.35V445.732H984.9V422.282Z" fill="#E9E9E9"/>
<path d="M984.9 445.732H1008.35V469.182H984.9V445.732Z" fill="#E9E9E9"/>
<path d="M1008.35 0.181641H1031.8V23.6316H1008.35V0.181641Z" fill="#E9E9E9"/>
<path d="M1008.35 23.6316H1031.8V47.0816H1008.35V23.6316Z" fill="#E9E9E9"/>
<path d="M1008.35 47.0816H1031.8V70.5316H1008.35V47.0816Z" fill="#E9E9E9"/>
<path d="M1008.35 70.5316H1031.8V93.9816H1008.35V70.5316Z" fill="#E9E9E9"/>
<path d="M1008.35 93.9816H1031.8V117.432H1008.35V93.9816Z" fill="#E9E9E9"/>
<path d="M1008.35 117.432H1031.8V140.882H1008.35V117.432Z" fill="#E9E9E9"/>
<path d="M1008.35 140.882H1031.8V164.332H1008.35V140.882Z" fill="#E9E9E9"/>
<path d="M1008.35 164.332H1031.8V187.782H1008.35V164.332Z" fill="#E9E9E9"/>
<path d="M1008.35 187.782H1031.8V211.232H1008.35V187.782Z" fill="#E9E9E9"/>
<path d="M1008.35 211.232H1031.8V234.682H1008.35V211.232Z" fill="#E9E9E9"/>
<path d="M1008.35 234.682H1031.8V258.132H1008.35V234.682Z" fill="#E9E9E9"/>
<path d="M1008.35 258.132H1031.8V281.582H1008.35V258.132Z" fill="#E9E9E9"/>
<path d="M1008.35 281.582H1031.8V305.032H1008.35V281.582Z" fill="#E9E9E9"/>
<path d="M1008.35 305.032H1031.8V328.482H1008.35V305.032Z" fill="#E9E9E9"/>
<path d="M1008.35 328.482H1031.8V351.932H1008.35V328.482Z" fill="#E9E9E9"/>
<path d="M1008.35 351.932H1031.8V375.382H1008.35V351.932Z" fill="#E9E9E9"/>
<path d="M1008.35 375.382H1031.8V398.832H1008.35V375.382Z" fill="#E9E9E9"/>
<path d="M1008.35 398.832H1031.8V422.282H1008.35V398.832Z" fill="#E9E9E9"/>
<path d="M1008.35 422.282H1031.8V445.732H1008.35V422.282Z" fill="#E9E9E9"/>
<path d="M1008.35 445.732H1031.8V469.182H1008.35V445.732Z" fill="#E9E9E9"/>
<path d="M23.45 0.181641H0V23.6316M23.45 0.181641V23.6316M23.45 0.181641H46.9M23.45 23.6316H0M23.45 23.6316V47.0816M23.45 23.6316H46.9M0 23.6316V47.0816M23.45 47.0816H0M23.45 47.0816V70.5316M23.45 47.0816H46.9M0 47.0816V70.5316M23.45 70.5316H0M23.45 70.5316V93.9816M23.45 70.5316H46.9M0 70.5316V93.9816M23.45 93.9816H0M23.45 93.9816V117.432M23.45 93.9816H46.9M0 93.9816V117.432M23.45 117.432H0M23.45 117.432V140.882M23.45 117.432H46.9M0 117.432V140.882M23.45 140.882H0M23.45 140.882V164.332M23.45 140.882H46.9M0 140.882V164.332M23.45 164.332H0M23.45 164.332V187.782M23.45 164.332H46.9M0 164.332V187.782M23.45 187.782H0M23.45 187.782V211.232M23.45 187.782H46.9M0 187.782V211.232M23.45 211.232H0M23.45 211.232V234.682M23.45 211.232H46.9M0 211.232V234.682M23.45 234.682H0M23.45 234.682V258.132M23.45 234.682H46.9M0 234.682V258.132M23.45 258.132H0M23.45 258.132V281.582M23.45 258.132H46.9M0 258.132V281.582M23.45 281.582H0M23.45 281.582V305.032M23.45 281.582H46.9M0 281.582V305.032M23.45 305.032H0M23.45 305.032V328.482M23.45 305.032H46.9M0 305.032V328.482M23.45 328.482H0M23.45 328.482V351.932M23.45 328.482H46.9M0 328.482V351.932M23.45 351.932H0M23.45 351.932V375.382M23.45 351.932H46.9M0 351.932V375.382M23.45 375.382H0M23.45 375.382V398.832M23.45 375.382H46.9M0 375.382V398.832M23.45 398.832H0M23.45 398.832V422.282M23.45 398.832H46.9M0 398.832V422.282M23.45 422.282H0M23.45 422.282V445.732M23.45 422.282H46.9M0 422.282V445.732M23.45 445.732H0M23.45 445.732V469.182M23.45 445.732H46.9M0 445.732V469.182H23.45M23.45 469.182H46.9M46.9 0.181641V23.6316M46.9 0.181641H70.35M46.9 23.6316V47.0816M46.9 23.6316H70.35M46.9 47.0816V70.5316M46.9 47.0816H70.35M46.9 70.5316V93.9816M46.9 70.5316H70.35M46.9 93.9816V117.432M46.9 93.9816H70.35M46.9 117.432V140.882M46.9 117.432H70.35M46.9 140.882V164.332M46.9 140.882H70.35M46.9 164.332V187.782M46.9 164.332H70.35M46.9 187.782V211.232M46.9 187.782H70.35M46.9 211.232V234.682M46.9 211.232H70.35M46.9 234.682V258.132M46.9 234.682H70.35M46.9 258.132V281.582M46.9 258.132H70.35M46.9 281.582V305.032M46.9 281.582H70.35M46.9 305.032V328.482M46.9 305.032H70.35M46.9 328.482V351.932M46.9 328.482H70.35M46.9 351.932V375.382M46.9 351.932H70.35M46.9 375.382V398.832M46.9 375.382H70.35M46.9 398.832V422.282M46.9 398.832H70.35M46.9 422.282V445.732M46.9 422.282H70.35M46.9 445.732V469.182M46.9 445.732H70.35M46.9 469.182H70.35M70.35 0.181641V23.6316M70.35 0.181641H93.8M70.35 23.6316V47.0816M70.35 23.6316H93.8M70.35 47.0816V70.5316M70.35 47.0816H93.8M70.35 70.5316V93.9816M70.35 70.5316H93.8M70.35 93.9816V117.432M70.35 93.9816H93.8M70.35 117.432V140.882M70.35 117.432H93.8M70.35 140.882V164.332M70.35 140.882H93.8M70.35 164.332V187.782M70.35 164.332H93.8M70.35 187.782V211.232M70.35 187.782H93.8M70.35 211.232V234.682M70.35 211.232H93.8M70.35 234.682V258.132M70.35 234.682H93.8M70.35 258.132V281.582M70.35 258.132H93.8M70.35 281.582V305.032M70.35 281.582H93.8M70.35 305.032V328.482M70.35 305.032H93.8M70.35 328.482V351.932M70.35 328.482H93.8M70.35 351.932V375.382M70.35 351.932H93.8M70.35 375.382V398.832M70.35 375.382H93.8M70.35 398.832V422.282M70.35 398.832H93.8M70.35 422.282V445.732M70.35 422.282H93.8M70.35 445.732V469.182M70.35 445.732H93.8M70.35 469.182H93.8M93.8 0.181641V23.6316M93.8 0.181641H117.25M93.8 23.6316V47.0816M93.8 23.6316H117.25M93.8 47.0816V70.5316M93.8 47.0816H117.25M93.8 70.5316V93.9816M93.8 70.5316H117.25M93.8 93.9816V117.432M93.8 93.9816H117.25M93.8 117.432V140.882M93.8 117.432H117.25M93.8 140.882V164.332M93.8 140.882H117.25M93.8 164.332V187.782M93.8 164.332H117.25M93.8 187.782V211.232M93.8 187.782H117.25M93.8 211.232V234.682M93.8 211.232H117.25M93.8 234.682V258.132M93.8 234.682H117.25M93.8 258.132V281.582M93.8 258.132H117.25M93.8 281.582V305.032M93.8 281.582H117.25M93.8 305.032V328.482M93.8 305.032H117.25M93.8 328.482V351.932M93.8 328.482H117.25M93.8 351.932V375.382M93.8 351.932H117.25M93.8 375.382V398.832M93.8 375.382H117.25M93.8 398.832V422.282M93.8 398.832H117.25M93.8 422.282V445.732M93.8 422.282H117.25M93.8 445.732V469.182M93.8 445.732H117.25M93.8 469.182H117.25M117.25 0.181641V23.6316M117.25 0.181641H140.7M117.25 23.6316V47.0816M117.25 23.6316H140.7M117.25 47.0816V70.5316M117.25 47.0816H140.7M117.25 70.5316V93.9816M117.25 70.5316H140.7M117.25 93.9816V117.432M117.25 93.9816H140.7M117.25 117.432V140.882M117.25 117.432H140.7M117.25 140.882V164.332M117.25 140.882H140.7M117.25 164.332V187.782M117.25 164.332H140.7M117.25 187.782V211.232M117.25 187.782H140.7M117.25 211.232V234.682M117.25 211.232H140.7M117.25 234.682V258.132M117.25 234.682H140.7M117.25 258.132V281.582M117.25 258.132H140.7M117.25 281.582V305.032M117.25 281.582H140.7M117.25 305.032V328.482M117.25 305.032H140.7M117.25 328.482V351.932M117.25 328.482H140.7M117.25 351.932V375.382M117.25 351.932H140.7M117.25 375.382V398.832M117.25 375.382H140.7M117.25 398.832V422.282M117.25 398.832H140.7M117.25 422.282V445.732M117.25 422.282H140.7M117.25 445.732V469.182M117.25 445.732H140.7M117.25 469.182H140.7M140.7 0.181641V23.6316M140.7 0.181641H164.15M140.7 23.6316V47.0816M140.7 23.6316H164.15M140.7 47.0816V70.5316M140.7 47.0816H164.15M140.7 70.5316V93.9816M140.7 70.5316H164.15M140.7 93.9816V117.432M140.7 93.9816H164.15M140.7 117.432V140.882M140.7 117.432H164.15M140.7 140.882V164.332M140.7 140.882H164.15M140.7 164.332V187.782M140.7 164.332H164.15M140.7 187.782V211.232M140.7 187.782H164.15M140.7 211.232V234.682M140.7 211.232H164.15M140.7 234.682V258.132M140.7 234.682H164.15M140.7 258.132V281.582M140.7 258.132H164.15M140.7 281.582V305.032M140.7 281.582H164.15M140.7 305.032V328.482M140.7 305.032H164.15M140.7 328.482V351.932M140.7 328.482H164.15M140.7 351.932V375.382M140.7 351.932H164.15M140.7 375.382V398.832M140.7 375.382H164.15M140.7 398.832V422.282M140.7 398.832H164.15M140.7 422.282V445.732M140.7 422.282H164.15M140.7 445.732V469.182M140.7 445.732H164.15M140.7 469.182H164.15M164.15 0.181641V23.6316M164.15 0.181641H187.6M164.15 23.6316V47.0816M164.15 23.6316H187.6M164.15 47.0816V70.5316M164.15 47.0816H187.6M164.15 70.5316V93.9816M164.15 70.5316H187.6M164.15 93.9816V117.432M164.15 93.9816H187.6M164.15 117.432V140.882M164.15 117.432H187.6M164.15 140.882V164.332M164.15 140.882H187.6M164.15 164.332H187.6M164.15 164.332V187.782M164.15 187.782V211.232M164.15 187.782H187.6M164.15 211.232V234.682M164.15 211.232H187.6M164.15 234.682V258.132M164.15 234.682H187.6M164.15 258.132V281.582M164.15 258.132H187.6M164.15 281.582V305.032M164.15 281.582H187.6M164.15 305.032V328.482M164.15 305.032H187.6M164.15 328.482V351.932M164.15 328.482H187.6M164.15 351.932V375.382M164.15 351.932H187.6M164.15 375.382V398.832M164.15 375.382H187.6M164.15 398.832V422.282M164.15 398.832H187.6M164.15 422.282V445.732M164.15 422.282H187.6M164.15 445.732V469.182M164.15 445.732H187.6M164.15 469.182H187.6M187.6 0.181641V23.6316M187.6 0.181641H211.05M187.6 23.6316V47.0816M187.6 23.6316H211.05M187.6 47.0816V70.5316M187.6 47.0816H211.05M187.6 70.5316V93.9816M187.6 70.5316H211.05M187.6 93.9816V117.432M187.6 93.9816H211.05M187.6 117.432V140.882M187.6 117.432H211.05M187.6 140.882V164.332M187.6 140.882H211.05M187.6 164.332V187.782M187.6 164.332H211.05M187.6 187.782V211.232M187.6 187.782H211.05M187.6 211.232V234.682M187.6 211.232H211.05M187.6 234.682V258.132M187.6 234.682H211.05M187.6 258.132V281.582M187.6 258.132H211.05M187.6 281.582V305.032M187.6 281.582H211.05M187.6 305.032V328.482M187.6 305.032C187.6 305.032 201.892 305.032 211.05 305.032M187.6 328.482V351.932M187.6 328.482H211.05M187.6 351.932V375.382M187.6 351.932H211.05M187.6 375.382V398.832M187.6 375.382H211.05M187.6 398.832V422.282M187.6 398.832H211.05M187.6 422.282V445.732M187.6 422.282H211.05M187.6 445.732V469.182M187.6 445.732H211.05M187.6 469.182H211.05M211.05 0.181641V23.6316M211.05 0.181641H234.5M211.05 23.6316V47.0816M211.05 23.6316H234.5M211.05 47.0816V70.5316M211.05 47.0816H234.5M211.05 70.5316V93.9816M211.05 70.5316H234.5M211.05 93.9816V117.432M211.05 93.9816H234.5M211.05 117.432V140.882M211.05 117.432H234.5M211.05 140.882V164.332M211.05 140.882H234.5M211.05 164.332V187.782M211.05 164.332H234.5M211.05 187.782V211.232M211.05 187.782H234.5M211.05 211.232V234.682M211.05 211.232H234.5M211.05 234.682V258.132M211.05 234.682H234.5M211.05 258.132V281.582M211.05 258.132H234.5M211.05 281.582C211.05 281.582 211.05 295.874 211.05 305.032M211.05 281.582H234.5M211.05 305.032C211.05 314.189 211.05 328.482 211.05 328.482M211.05 305.032C220.208 305.032 234.5 305.032 234.5 305.032M211.05 328.482V351.932M211.05 328.482H234.5M211.05 351.932V375.382M211.05 351.932H234.5M211.05 375.382V398.832M211.05 375.382H234.5M211.05 398.832V422.282M211.05 398.832H234.5M211.05 422.282V445.732M211.05 422.282H234.5M211.05 445.732V469.182M211.05 445.732H234.5M211.05 469.182H234.5M234.5 0.181641V23.6316M234.5 0.181641H257.95M234.5 23.6316V47.0816M234.5 23.6316H257.95M234.5 47.0816V70.5316M234.5 47.0816H257.95M234.5 70.5316V93.9816M234.5 70.5316H257.95M234.5 93.9816V117.432M234.5 93.9816H257.95M234.5 117.432V140.882M234.5 117.432H257.95M234.5 140.882V164.332M234.5 140.882H257.95M234.5 164.332V187.782M234.5 164.332H257.95M234.5 187.782V211.232M234.5 187.782H257.95M234.5 211.232V234.682M234.5 211.232H257.95M234.5 234.682V258.132M234.5 234.682H257.95M234.5 258.132V281.582M234.5 258.132H257.95M234.5 281.582V305.032M234.5 281.582H257.95M234.5 305.032V328.482M234.5 305.032H257.95M234.5 328.482V351.932M234.5 328.482H257.95M234.5 351.932V375.382M234.5 351.932H257.95M234.5 375.382V398.832M234.5 375.382H257.95M234.5 398.832V422.282M234.5 398.832H257.95M234.5 422.282V445.732M234.5 422.282H257.95M234.5 445.732V469.182M234.5 445.732H257.95M234.5 469.182H257.95M257.95 0.181641V23.6316M257.95 0.181641H281.4M257.95 23.6316V47.0816M257.95 23.6316H281.4M257.95 47.0816V70.5316M257.95 47.0816H281.4M257.95 70.5316V93.9816M257.95 70.5316H281.4M257.95 93.9816V117.432M257.95 93.9816H773.85M257.95 117.432V140.882M257.95 117.432H773.85M257.95 140.882V164.332M257.95 140.882H281.4M257.95 164.332V187.782M257.95 164.332H281.4M257.95 187.782V211.232M257.95 187.782H281.4M257.95 211.232V234.682M257.95 211.232H281.4M257.95 234.682V258.132M257.95 234.682H281.4M257.95 258.132V281.582M257.95 258.132H281.4M257.95 281.582V305.032M257.95 281.582H281.4M257.95 305.032V328.482M257.95 305.032H281.4M257.95 328.482V351.932M257.95 328.482H281.4M257.95 351.932V375.382M257.95 351.932H281.4M257.95 375.382V398.832M257.95 375.382H281.4M257.95 398.832V422.282M257.95 398.832H281.4M257.95 422.282V445.732M257.95 422.282H281.4M257.95 445.732V469.182M257.95 445.732H281.4M257.95 469.182H281.4M281.4 0.181641V23.6316M281.4 0.181641H304.85M281.4 23.6316V47.0816M281.4 23.6316H304.85M281.4 47.0816V70.5316M281.4 47.0816H304.85M281.4 70.5316H304.85M281.4 70.5316V140.882M281.4 140.882V164.332M281.4 140.882H304.85M281.4 164.332V187.782M281.4 164.332H304.85M281.4 187.782V211.232M281.4 187.782H304.85M281.4 211.232V234.682M281.4 211.232H304.85M281.4 234.682V258.132M281.4 234.682H304.85M281.4 258.132V281.582M281.4 258.132H304.85M281.4 281.582V305.032M281.4 281.582H304.85M281.4 305.032V328.482M281.4 305.032H304.85M281.4 328.482V351.932M281.4 328.482H304.85M281.4 351.932V375.382M281.4 351.932H304.85M281.4 375.382V398.832M281.4 375.382H304.85M281.4 398.832V422.282M281.4 398.832H304.85M281.4 422.282V445.732M281.4 422.282H304.85M281.4 445.732V469.182M281.4 445.732H304.85M281.4 469.182H304.85M304.85 0.181641V23.6316M304.85 0.181641H328.3M304.85 23.6316V47.0816M304.85 23.6316H328.3M304.85 47.0816V70.5316M304.85 47.0816H328.3M304.85 70.5316H328.3M304.85 70.5316V140.882M304.85 140.882V164.332M304.85 140.882H328.3M304.85 164.332V187.782M304.85 164.332H328.3M304.85 187.782V211.232M304.85 187.782H328.3M304.85 211.232V234.682M304.85 211.232H328.3M304.85 234.682V258.132M304.85 234.682H328.3M304.85 258.132V281.582M304.85 258.132H328.3M304.85 281.582V305.032M304.85 281.582H328.3M304.85 305.032V328.482M304.85 305.032H328.3M304.85 328.482V351.932M304.85 328.482H328.3M304.85 351.932V375.382M304.85 351.932H328.3M304.85 375.382V398.832M304.85 375.382H328.3M304.85 398.832V422.282M304.85 398.832H328.3M304.85 422.282V445.732M304.85 422.282H328.3M304.85 445.732V469.182M304.85 445.732H328.3M304.85 469.182H328.3M328.3 0.181641V23.6316M328.3 0.181641H351.75M328.3 23.6316V47.0816M328.3 23.6316H351.75M328.3 47.0816V70.5316M328.3 47.0816H351.75M328.3 70.5316H351.75M328.3 70.5316V140.882M328.3 140.882V164.332M328.3 140.882H703.5M328.3 164.332V187.782M328.3 164.332H703.5M328.3 187.782V211.232M328.3 187.782H351.75M328.3 211.232V234.682M328.3 211.232H351.75M328.3 234.682V258.132M328.3 234.682H351.75M328.3 258.132V281.582M328.3 258.132H351.75M328.3 281.582V305.032M328.3 281.582H351.75M328.3 305.032V328.482M328.3 305.032H351.75M328.3 328.482V351.932M328.3 328.482H351.75M328.3 351.932V375.382M328.3 351.932H351.75M328.3 375.382V398.832M328.3 375.382H351.75M328.3 398.832V422.282M328.3 398.832H351.75M328.3 422.282V445.732M328.3 422.282H351.75M328.3 445.732V469.182M328.3 445.732H351.75M328.3 469.182H351.75M351.75 0.181641V23.6316M351.75 0.181641H375.2M351.75 23.6316V47.0816M351.75 23.6316H375.2M351.75 47.0816V70.5316M351.75 47.0816H375.2M351.75 70.5316H375.2M351.75 70.5316V187.782M351.75 187.782V211.232M351.75 187.782H375.2M351.75 211.232V234.682M351.75 211.232H375.2M351.75 234.682V258.132M351.75 234.682H375.2M351.75 258.132V281.582M351.75 258.132H375.2M351.75 281.582V305.032M351.75 281.582H375.2M351.75 305.032V328.482M351.75 305.032H375.2M351.75 328.482V351.932M351.75 328.482H375.2M351.75 351.932V375.382M351.75 351.932H375.2M351.75 375.382V398.832M351.75 375.382H375.2M351.75 398.832V422.282M351.75 398.832H375.2M351.75 422.282V445.732M351.75 422.282H375.2M351.75 445.732V469.182M351.75 445.732H375.2M351.75 469.182H375.2M375.2 0.181641V23.6316M375.2 0.181641H398.65M375.2 23.6316V47.0816M375.2 23.6316H398.65M375.2 47.0816V70.5316M375.2 47.0816H398.65M375.2 70.5316H398.65M375.2 70.5316V187.782M375.2 187.782V211.232M375.2 187.782H398.65M375.2 211.232V234.682M375.2 211.232H398.65M375.2 234.682V258.132M375.2 234.682H398.65M375.2 258.132V281.582M375.2 258.132H398.65M375.2 281.582V305.032M375.2 281.582H398.65M375.2 305.032V328.482M375.2 305.032H398.65M375.2 328.482V351.932M375.2 328.482H398.65M375.2 351.932V375.382M375.2 351.932H398.65M375.2 375.382V398.832M375.2 375.382H398.65M375.2 398.832V422.282M375.2 398.832H398.65M375.2 422.282V445.732M375.2 422.282H398.65M375.2 445.732V469.182M375.2 445.732H398.65M375.2 469.182H398.65M398.65 0.181641V23.6316M398.65 0.181641H422.1M398.65 23.6316V47.0816M398.65 23.6316H422.1M398.65 47.0816V70.5316M398.65 47.0816H422.1M398.65 70.5316H422.1M398.65 70.5316V187.782M398.65 187.782V211.232M398.65 187.782H422.1M398.65 211.232V234.682M398.65 211.232H422.1M398.65 234.682V258.132M398.65 234.682H422.1M398.65 258.132V281.582M398.65 258.132H422.1M398.65 281.582V305.032M398.65 281.582H422.1M398.65 305.032V328.482M398.65 305.032H422.1M398.65 328.482V351.932M398.65 328.482H422.1M398.65 351.932V375.382M398.65 351.932H422.1M398.65 375.382V398.832M398.65 375.382H422.1M398.65 398.832V422.282M398.65 398.832H422.1M398.65 422.282V445.732M398.65 422.282H422.1M398.65 445.732V469.182M398.65 445.732H422.1M398.65 469.182H422.1M422.1 0.181641V23.6316M422.1 0.181641H445.55M422.1 23.6316V47.0816M422.1 23.6316H445.55M422.1 47.0816V70.5316M422.1 47.0816H445.55M422.1 70.5316H445.55M422.1 70.5316V187.782M422.1 187.782V211.232M422.1 187.782H445.55M422.1 211.232V234.682M422.1 211.232H445.55M422.1 234.682V258.132M422.1 234.682H445.55M422.1 258.132V281.582M422.1 258.132H445.55M422.1 281.582V305.032M422.1 281.582H445.55M422.1 305.032V328.482M422.1 305.032H445.55M422.1 328.482V351.932M422.1 328.482H445.55M422.1 351.932V375.382M422.1 351.932H445.55M422.1 375.382V398.832M422.1 375.382H445.55M422.1 398.832V422.282M422.1 398.832H445.55M422.1 422.282V445.732M422.1 422.282H445.55M422.1 445.732V469.182M422.1 445.732H445.55M422.1 469.182H445.55M445.55 0.181641V23.6316M445.55 0.181641H469M445.55 23.6316V47.0816M445.55 23.6316H469M445.55 47.0816V70.5316M445.55 47.0816H469M445.55 70.5316H469M445.55 70.5316V187.782M445.55 187.782V211.232M445.55 187.782H469M445.55 211.232V234.682M445.55 211.232H469M445.55 234.682V258.132M445.55 234.682H469M445.55 258.132V281.582M445.55 258.132H469M445.55 281.582V305.032M445.55 281.582H469M445.55 305.032V328.482M445.55 305.032H469M445.55 328.482V351.932M445.55 328.482H469M445.55 351.932V375.382M445.55 351.932H469M445.55 375.382V398.832M445.55 375.382H469M445.55 398.832V422.282M445.55 398.832H469M445.55 422.282V445.732M445.55 422.282H469M445.55 445.732V469.182M445.55 445.732H469M445.55 469.182H469M469 0.181641V23.6316M469 0.181641H492.45M469 23.6316V47.0816M469 23.6316H492.45M469 47.0816V70.5316M469 47.0816H492.45M469 70.5316H492.45M469 70.5316V187.782M469 187.782V211.232M469 187.782H492.45M469 211.232V234.682M469 211.232H492.45M469 234.682V258.132M469 234.682H492.45M469 258.132V281.582M469 258.132H492.45M469 281.582V305.032M469 281.582H492.45M469 305.032V328.482M469 305.032H492.45M469 328.482V351.932M469 328.482H492.45M469 351.932V375.382M469 351.932H492.45M469 375.382V398.832M469 375.382H492.45M469 398.832V422.282M469 398.832H492.45M469 422.282V445.732M469 422.282H492.45M469 445.732V469.182M469 445.732H492.45M469 469.182H492.45M492.45 0.181641V23.6316M492.45 0.181641H515.9M492.45 23.6316H515.9M492.45 23.6316V47.0816M492.45 47.0816V70.5316M492.45 47.0816H515.9M492.45 70.5316H515.9M492.45 70.5316V187.782M492.45 187.782V211.232M492.45 187.782H515.9M492.45 211.232V234.682M492.45 211.232H515.9M492.45 234.682V258.132M492.45 234.682H515.9M492.45 258.132V281.582M492.45 258.132H515.9M492.45 281.582V305.032M492.45 281.582H515.9M492.45 305.032V328.482M492.45 305.032H515.9M492.45 328.482V351.932M492.45 328.482H515.9M492.45 351.932V375.382M492.45 351.932H515.9M492.45 375.382V398.832M492.45 375.382H515.9M492.45 398.832V422.282M492.45 398.832H515.9M492.45 422.282V445.732M492.45 422.282H515.9M492.45 445.732V469.182M492.45 445.732H515.9M492.45 469.182H515.9M515.9 0.181641V23.6316M515.9 0.181641H539.35M515.9 23.6316H539.35M515.9 23.6316V47.0816M515.9 47.0816V70.5316M515.9 47.0816H539.35M515.9 70.5316H539.35M515.9 70.5316V187.782M515.9 187.782V211.232M515.9 187.782H539.35M515.9 211.232V234.682M515.9 211.232H539.35M515.9 234.682V258.132M515.9 234.682H539.35M515.9 258.132V281.582M515.9 258.132H539.35M515.9 281.582V305.032M515.9 281.582H539.35M515.9 305.032V328.482M515.9 305.032H539.35M515.9 328.482V351.932M515.9 328.482H539.35M515.9 351.932V375.382M515.9 351.932H539.35M515.9 375.382V398.832M515.9 375.382H539.35M515.9 398.832V422.282M515.9 398.832H539.35M515.9 422.282V445.732M515.9 422.282H539.35M515.9 445.732V469.182M515.9 445.732H539.35M515.9 469.182H539.35M539.35 0.181641V23.6316M539.35 0.181641H562.8M539.35 23.6316H562.8M539.35 23.6316V47.0816M539.35 47.0816V70.5316M539.35 47.0816H562.8M539.35 70.5316H562.8M539.35 70.5316V187.782M539.35 187.782V211.232M539.35 187.782H562.8M539.35 211.232V234.682M539.35 211.232H562.8M539.35 234.682V258.132M539.35 234.682H562.8M539.35 258.132V281.582M539.35 258.132H562.8M539.35 281.582V305.032M539.35 281.582H562.8M539.35 305.032V328.482M539.35 305.032H562.8M539.35 328.482V351.932M539.35 328.482H562.8M539.35 351.932V375.382M539.35 351.932H562.8M539.35 375.382V398.832M539.35 375.382H562.8M539.35 398.832V422.282M539.35 398.832H562.8M539.35 422.282V445.732M539.35 422.282H562.8M539.35 445.732V469.182M539.35 445.732H562.8M539.35 469.182H562.8M562.8 0.181641V23.6316M562.8 0.181641H586.25M562.8 23.6316H586.25M562.8 23.6316V47.0816M562.8 47.0816V70.5316M562.8 47.0816H586.25M562.8 70.5316H586.25M562.8 70.5316V187.782M562.8 187.782V211.232M562.8 187.782H586.25M562.8 211.232V234.682M562.8 211.232H586.25M562.8 234.682V258.132M562.8 234.682H586.25M562.8 258.132V281.582M562.8 258.132H586.25M562.8 281.582V305.032M562.8 281.582H586.25M562.8 305.032V328.482M562.8 305.032H586.25M562.8 328.482V351.932M562.8 328.482H586.25M562.8 351.932V375.382M562.8 351.932H586.25M562.8 375.382V398.832M562.8 375.382H586.25M562.8 398.832V422.282M562.8 398.832H586.25M562.8 422.282V445.732M562.8 422.282H586.25M562.8 445.732V469.182M562.8 445.732H586.25M562.8 469.182H586.25M586.25 0.181641V23.6316M586.25 0.181641H609.7M586.25 23.6316V47.0816M586.25 23.6316H609.7M586.25 47.0816V70.5316M586.25 47.0816H609.7M586.25 70.5316H609.7M586.25 70.5316V187.782M586.25 187.782V211.232M586.25 187.782H609.7M586.25 211.232V234.682M586.25 211.232H609.7M586.25 234.682V258.132M586.25 234.682H609.7M586.25 258.132V281.582M586.25 258.132H609.7M586.25 281.582V305.032M586.25 281.582H609.7M586.25 305.032V328.482M586.25 305.032H609.7M586.25 328.482V351.932M586.25 328.482H609.7M586.25 351.932V375.382M586.25 351.932H609.7M586.25 375.382V398.832M586.25 375.382H609.7M586.25 398.832V422.282M586.25 398.832H609.7M586.25 422.282V445.732M586.25 422.282H609.7M586.25 445.732V469.182M586.25 445.732H609.7M586.25 469.182H609.7M609.7 0.181641V23.6316M609.7 0.181641H633.15M609.7 23.6316V47.0816M609.7 23.6316H633.15M609.7 47.0816V70.5316M609.7 47.0816H633.15M609.7 70.5316H633.15M609.7 70.5316V187.782M609.7 187.782V211.232M609.7 187.782H633.15M609.7 211.232V234.682M609.7 211.232H633.15M609.7 234.682V258.132M609.7 234.682H633.15M609.7 258.132V281.582M609.7 258.132H633.15M609.7 281.582V305.032M609.7 281.582H633.15M609.7 305.032V328.482M609.7 305.032H633.15M609.7 328.482V351.932M609.7 328.482H633.15M609.7 351.932V375.382M609.7 351.932H633.15M609.7 375.382V398.832M609.7 375.382H633.15M609.7 398.832V422.282M609.7 398.832H633.15M609.7 422.282V445.732M609.7 422.282H633.15M609.7 445.732V469.182M609.7 445.732H633.15M609.7 469.182H633.15M633.15 0.181641V23.6316M633.15 0.181641H656.6M633.15 23.6316V47.0816M633.15 23.6316H656.6M633.15 47.0816V70.5316M633.15 47.0816H656.6M633.15 70.5316H656.6M633.15 70.5316V187.782M633.15 187.782V211.232M633.15 187.782H656.6M633.15 211.232V234.682M633.15 211.232H656.6M633.15 234.682V258.132M633.15 234.682H656.6M633.15 258.132V281.582M633.15 258.132H656.6M633.15 281.582V305.032M633.15 281.582H656.6M633.15 305.032V328.482M633.15 305.032H656.6M633.15 328.482V351.932M633.15 328.482H656.6M633.15 351.932V375.382M633.15 351.932H656.6M633.15 375.382V398.832M633.15 375.382H656.6M633.15 398.832V422.282M633.15 398.832H656.6M633.15 422.282V445.732M633.15 422.282H656.6M633.15 445.732V469.182M633.15 445.732H656.6M633.15 469.182H656.6M656.6 0.181641V23.6316M656.6 0.181641H680.05M656.6 23.6316V47.0816M656.6 23.6316H680.05M656.6 47.0816V70.5316M656.6 47.0816H680.05M656.6 70.5316H680.05M656.6 70.5316V187.782M656.6 187.782V211.232M656.6 187.782H680.05M656.6 211.232V234.682M656.6 211.232H680.05M656.6 234.682V258.132M656.6 234.682H680.05M656.6 258.132V281.582M656.6 258.132H680.05M656.6 281.582V305.032M656.6 281.582H680.05M656.6 305.032V328.482M656.6 305.032H680.05M656.6 328.482V351.932M656.6 328.482H680.05M656.6 351.932V375.382M656.6 351.932H680.05M656.6 375.382V398.832M656.6 375.382H680.05M656.6 398.832V422.282M656.6 398.832H680.05M656.6 422.282V445.732M656.6 422.282H680.05M656.6 445.732V469.182M656.6 445.732H680.05M656.6 469.182H680.05M680.05 0.181641V23.6316M680.05 0.181641H703.5M680.05 23.6316V47.0816M680.05 23.6316H703.5M680.05 47.0816V70.5316M680.05 47.0816H703.5M680.05 70.5316H703.5M680.05 70.5316V187.782M680.05 187.782V211.232M680.05 187.782H703.5M680.05 211.232V234.682M680.05 211.232H703.5M680.05 234.682V258.132M680.05 234.682H703.5M680.05 258.132V281.582M680.05 258.132H703.5M680.05 281.582V305.032M680.05 281.582H703.5M680.05 305.032V328.482M680.05 305.032H703.5M680.05 328.482V351.932M680.05 328.482H703.5M680.05 351.932V375.382M680.05 351.932H703.5M680.05 375.382V398.832M680.05 375.382H703.5M680.05 398.832V422.282M680.05 398.832H703.5M680.05 422.282V445.732M680.05 422.282H703.5M680.05 445.732V469.182M680.05 445.732H703.5M680.05 469.182H703.5M703.5 0.181641V23.6316M703.5 0.181641H726.95M703.5 23.6316V47.0816M703.5 23.6316H726.95M703.5 47.0816V70.5316M703.5 47.0816H726.95M703.5 70.5316H726.95M703.5 70.5316V140.882M703.5 140.882V164.332M703.5 140.882H726.95M703.5 164.332V187.782M703.5 164.332H726.95M703.5 187.782V211.232M703.5 187.782H726.95M703.5 211.232V234.682M703.5 211.232H726.95M703.5 234.682V258.132M703.5 234.682H726.95M703.5 258.132V281.582M703.5 258.132H726.95M703.5 281.582V305.032M703.5 281.582H726.95M703.5 305.032V328.482M703.5 305.032H726.95M703.5 328.482V351.932M703.5 328.482H726.95M703.5 351.932V375.382M703.5 351.932H726.95M703.5 375.382V398.832M703.5 375.382H726.95M703.5 398.832V422.282M703.5 398.832H726.95M703.5 422.282V445.732M703.5 422.282H726.95M703.5 445.732V469.182M703.5 445.732H726.95M703.5 469.182H726.95M726.95 0.181641V23.6316M726.95 0.181641H750.4M726.95 23.6316V47.0816M726.95 23.6316H750.4M726.95 47.0816V70.5316M726.95 47.0816H750.4M726.95 70.5316H750.4M726.95 70.5316V140.882M726.95 140.882V164.332M726.95 140.882H750.4M726.95 164.332V187.782M726.95 164.332H750.4M726.95 187.782V211.232M726.95 187.782H750.4M726.95 211.232V234.682M726.95 211.232H750.4M726.95 234.682V258.132M726.95 234.682H750.4M726.95 258.132V281.582M726.95 258.132H750.4M726.95 281.582V305.032M726.95 281.582H750.4M726.95 305.032V328.482M726.95 305.032H750.4M726.95 328.482V351.932M726.95 328.482H750.4M726.95 351.932V375.382M726.95 351.932H750.4M726.95 375.382V398.832M726.95 375.382H750.4M726.95 398.832V422.282M726.95 398.832H750.4M726.95 422.282V445.732M726.95 422.282H750.4M726.95 445.732V469.182M726.95 445.732H750.4M726.95 469.182H750.4M750.4 0.181641V23.6316M750.4 0.181641H773.85M750.4 23.6316V47.0816M750.4 23.6316H773.85M750.4 47.0816V70.5316M750.4 47.0816H773.85M750.4 70.5316H773.85M750.4 70.5316V140.882M750.4 140.882V164.332M750.4 140.882H773.85M750.4 164.332V187.782M750.4 164.332H773.85M750.4 187.782V211.232M750.4 187.782H773.85M750.4 211.232V234.682M750.4 211.232H773.85M750.4 234.682V258.132M750.4 234.682H773.85M750.4 258.132V281.582M750.4 258.132H773.85M750.4 281.582V305.032M750.4 281.582H773.85M750.4 305.032V328.482M750.4 305.032H773.85M750.4 328.482V351.932M750.4 328.482H773.85M750.4 351.932V375.382M750.4 351.932H773.85M750.4 375.382V398.832M750.4 375.382H773.85M750.4 398.832V422.282M750.4 398.832H773.85M750.4 422.282V445.732M750.4 422.282H773.85M750.4 445.732V469.182M750.4 445.732H773.85M750.4 469.182H773.85M773.85 0.181641V23.6316M773.85 0.181641H797.3M773.85 23.6316V47.0816M773.85 23.6316H797.3M773.85 47.0816V70.5316M773.85 47.0816H797.3M773.85 70.5316V93.9816M773.85 70.5316H797.3M773.85 93.9816V117.432M773.85 93.9816H797.3M773.85 117.432V140.882M773.85 117.432H797.3M773.85 140.882V164.332M773.85 140.882H797.3M773.85 164.332V187.782M773.85 164.332H797.3M773.85 187.782V211.232M773.85 187.782H797.3M773.85 211.232V234.682M773.85 211.232H797.3M773.85 234.682V258.132M773.85 234.682H797.3M773.85 258.132V281.582M773.85 258.132H797.3M773.85 281.582V305.032M773.85 281.582H797.3M773.85 305.032V328.482M773.85 305.032H797.3M773.85 328.482V351.932M773.85 328.482H797.3M773.85 351.932V375.382M773.85 351.932H797.3M773.85 375.382V398.832M773.85 375.382H797.3M773.85 398.832V422.282M773.85 398.832H797.3M773.85 422.282V445.732M773.85 422.282H797.3M773.85 445.732V469.182M773.85 445.732H797.3M773.85 469.182H797.3M797.3 0.181641V23.6316M797.3 0.181641H820.75M797.3 23.6316V47.0816M797.3 23.6316H820.75M797.3 47.0816V70.5316M797.3 47.0816H820.75M797.3 70.5316V93.9816M797.3 70.5316H820.75M797.3 93.9816V117.432M797.3 93.9816H820.75M797.3 117.432V140.882M797.3 117.432H820.75M797.3 140.882V164.332M797.3 140.882H820.75M797.3 164.332V187.782M797.3 164.332H820.75M797.3 187.782V211.232M797.3 187.782H820.75M797.3 211.232V234.682M797.3 211.232H820.75M797.3 234.682V258.132M797.3 234.682H820.75M797.3 258.132V281.582M797.3 258.132H820.75M797.3 281.582V305.032M797.3 281.582H820.75M797.3 305.032V328.482M797.3 305.032H820.75M797.3 328.482V351.932M797.3 328.482H820.75M797.3 351.932V375.382M797.3 351.932H820.75M797.3 375.382V398.832M797.3 375.382H820.75M797.3 398.832V422.282M797.3 398.832H820.75M797.3 422.282V445.732M797.3 422.282H820.75M797.3 445.732V469.182M797.3 445.732H820.75M797.3 469.182H820.75M820.75 0.181641V23.6316M820.75 0.181641H844.2M820.75 23.6316V47.0816M820.75 23.6316H844.2M820.75 47.0816V70.5316M820.75 47.0816H844.2M820.75 70.5316V93.9816M820.75 70.5316H844.2M820.75 93.9816V117.432M820.75 93.9816H844.2M820.75 117.432V140.882M820.75 117.432H844.2M820.75 140.882V164.332M820.75 140.882H844.2M820.75 164.332V187.782M820.75 164.332H844.2M820.75 187.782V211.232M820.75 187.782H844.2M820.75 211.232V234.682M820.75 211.232H844.2M820.75 234.682V258.132M820.75 234.682H844.2M820.75 258.132V281.582M820.75 258.132H844.2M820.75 281.582V305.032M820.75 281.582H844.2M820.75 305.032V328.482M820.75 305.032H844.2M820.75 328.482V351.932M820.75 328.482H844.2M820.75 351.932V375.382M820.75 351.932H844.2M820.75 375.382V398.832M820.75 375.382H844.2M820.75 398.832V422.282M820.75 398.832H844.2M820.75 422.282V445.732M820.75 422.282H844.2M820.75 445.732V469.182M820.75 445.732H844.2M820.75 469.182H844.2M844.2 0.181641V23.6316M844.2 0.181641H867.65M844.2 23.6316V47.0816M844.2 23.6316H867.65M844.2 47.0816V70.5316M844.2 47.0816H867.65M844.2 70.5316V93.9816M844.2 70.5316H867.65M844.2 93.9816V117.432M844.2 93.9816H867.65M844.2 117.432V140.882M844.2 117.432H867.65M844.2 140.882V164.332M844.2 140.882H867.65M844.2 164.332V187.782M844.2 164.332H867.65M844.2 187.782V211.232M844.2 187.782H867.65M844.2 211.232V234.682M844.2 211.232H867.65M844.2 234.682V258.132M844.2 234.682H867.65M844.2 258.132V281.582M844.2 258.132H867.65M844.2 281.582V305.032M844.2 281.582H867.65M844.2 305.032V328.482M844.2 305.032H867.65M844.2 328.482V351.932M844.2 328.482H867.65M844.2 351.932V375.382M844.2 351.932H867.65M844.2 375.382V398.832M844.2 375.382H867.65M844.2 398.832V422.282M844.2 398.832H867.65M844.2 422.282V445.732M844.2 422.282H867.65M844.2 445.732V469.182M844.2 445.732H867.65M844.2 469.182H867.65M867.65 0.181641V23.6316M867.65 0.181641H891.1M867.65 23.6316V47.0816M867.65 23.6316H891.1M867.65 47.0816V70.5316M867.65 47.0816H891.1M867.65 70.5316V93.9816M867.65 70.5316H891.1M867.65 93.9816V117.432M867.65 93.9816H891.1M867.65 117.432V140.882M867.65 117.432H891.1M867.65 140.882V164.332M867.65 140.882H891.1M867.65 164.332H891.1M867.65 164.332V187.782M867.65 187.782V211.232M867.65 187.782H891.1M867.65 211.232V234.682M867.65 211.232H891.1M867.65 234.682V258.132M867.65 234.682H891.1M867.65 258.132V281.582M867.65 258.132H891.1M867.65 281.582V305.032M867.65 281.582H891.1M867.65 305.032V328.482M867.65 305.032H891.1M867.65 328.482V351.932M867.65 328.482H891.1M867.65 351.932V375.382M867.65 351.932H891.1M867.65 375.382V398.832M867.65 375.382H891.1M867.65 398.832V422.282M867.65 398.832H891.1M867.65 422.282V445.732M867.65 422.282H891.1M867.65 445.732V469.182M867.65 445.732H891.1M867.65 469.182H891.1M891.1 0.181641V23.6316M891.1 0.181641H914.55M891.1 23.6316V47.0816M891.1 23.6316H914.55M891.1 47.0816V70.5316M891.1 47.0816H914.55M891.1 70.5316V93.9816M891.1 70.5316H914.55M891.1 93.9816V117.432M891.1 93.9816H914.55M891.1 117.432V140.882M891.1 117.432H914.55M891.1 140.882V164.332M891.1 140.882H914.55M891.1 164.332V187.782M891.1 164.332H914.55M891.1 187.782V211.232M891.1 187.782H914.55M891.1 211.232V234.682M891.1 211.232H914.55M891.1 234.682V258.132M891.1 234.682H914.55M891.1 258.132V281.582M891.1 258.132H914.55M891.1 281.582V305.032M891.1 281.582H914.55M891.1 305.032V328.482M891.1 305.032H914.55M891.1 328.482V351.932M891.1 328.482H914.55M891.1 351.932V375.382M891.1 351.932H914.55M891.1 375.382V398.832M891.1 375.382H914.55M891.1 398.832V422.282M891.1 398.832H914.55M891.1 422.282V445.732M891.1 422.282H914.55M891.1 445.732V469.182M891.1 445.732H914.55M891.1 469.182H914.55M914.55 0.181641V23.6316M914.55 0.181641H938M914.55 23.6316V47.0816M914.55 23.6316H938M914.55 47.0816V70.5316M914.55 47.0816H938M914.55 70.5316V93.9816M914.55 70.5316H938M914.55 93.9816V117.432M914.55 93.9816H938M914.55 117.432V140.882M914.55 117.432H938M914.55 140.882V164.332M914.55 140.882H938M914.55 164.332V187.782M914.55 164.332H938M914.55 187.782V211.232M914.55 187.782H938M914.55 211.232V234.682M914.55 211.232H938M914.55 234.682V258.132M914.55 234.682H938M914.55 258.132V281.582M914.55 258.132H938M914.55 281.582V305.032M914.55 281.582H938M914.55 305.032V328.482M914.55 305.032H938M914.55 328.482V351.932M914.55 328.482H938M914.55 351.932V375.382M914.55 351.932H938M914.55 375.382V398.832M914.55 375.382H938M914.55 398.832V422.282M914.55 398.832H938M914.55 422.282V445.732M914.55 422.282H938M914.55 445.732V469.182M914.55 445.732H938M914.55 469.182H938M938 0.181641V23.6316M938 0.181641H961.45M938 23.6316V47.0816M938 23.6316H961.45M938 47.0816V70.5316M938 47.0816H961.45M938 70.5316V93.9816M938 70.5316H961.45M938 93.9816V117.432M938 93.9816H961.45M938 117.432V140.882M938 117.432H961.45M938 140.882V164.332M938 140.882H961.45M938 164.332V187.782M938 164.332H961.45M938 187.782V211.232M938 187.782H961.45M938 211.232V234.682M938 211.232H961.45M938 234.682V258.132M938 234.682H961.45M938 258.132V281.582M938 258.132H961.45M938 281.582V305.032M938 281.582H961.45M938 305.032V328.482M938 305.032H961.45M938 328.482V351.932M938 328.482H961.45M938 351.932V375.382M938 351.932H961.45M938 375.382V398.832M938 375.382H961.45M938 398.832V422.282M938 398.832H961.45M938 422.282V445.732M938 422.282H961.45M938 445.732V469.182M938 445.732H961.45M938 469.182H961.45M961.45 0.181641V23.6316M961.45 0.181641H984.9M961.45 23.6316V47.0816M961.45 23.6316H984.9M961.45 47.0816V70.5316M961.45 47.0816H984.9M961.45 70.5316V93.9816M961.45 70.5316H984.9M961.45 93.9816V117.432M961.45 93.9816H984.9M961.45 117.432V140.882M961.45 117.432H984.9M961.45 140.882V164.332M961.45 140.882H984.9M961.45 164.332V187.782M961.45 164.332H984.9M961.45 187.782V211.232M961.45 187.782H984.9M961.45 211.232V234.682M961.45 211.232H984.9M961.45 234.682V258.132M961.45 234.682H984.9M961.45 258.132V281.582M961.45 258.132H984.9M961.45 281.582V305.032M961.45 281.582H984.9M961.45 305.032V328.482M961.45 305.032H984.9M961.45 328.482V351.932M961.45 328.482H984.9M961.45 351.932V375.382M961.45 351.932H984.9M961.45 375.382V398.832M961.45 375.382H984.9M961.45 398.832V422.282M961.45 398.832H984.9M961.45 422.282V445.732M961.45 422.282H984.9M961.45 445.732V469.182M961.45 445.732H984.9M961.45 469.182H984.9M984.9 0.181641V23.6316M984.9 0.181641H1008.35M984.9 23.6316V47.0816M984.9 23.6316H1008.35M984.9 47.0816V70.5316M984.9 47.0816H1008.35M984.9 70.5316V93.9816M984.9 70.5316H1008.35M984.9 93.9816V117.432M984.9 93.9816H1008.35M984.9 117.432V140.882M984.9 117.432H1008.35M984.9 140.882V164.332M984.9 140.882H1008.35M984.9 164.332V187.782M984.9 164.332H1008.35M984.9 187.782V211.232M984.9 187.782H1008.35M984.9 211.232V234.682M984.9 211.232H1008.35M984.9 234.682V258.132M984.9 234.682H1008.35M984.9 258.132V281.582M984.9 258.132H1008.35M984.9 281.582V305.032M984.9 281.582H1008.35M984.9 305.032V328.482M984.9 305.032H1008.35M984.9 328.482V351.932M984.9 328.482H1008.35M984.9 351.932V375.382M984.9 351.932H1008.35M984.9 375.382V398.832M984.9 375.382H1008.35M984.9 398.832V422.282M984.9 398.832H1008.35M984.9 422.282V445.732M984.9 422.282H1008.35M984.9 445.732V469.182M984.9 445.732H1008.35M984.9 469.182H1008.35M1008.35 0.181641V23.6316M1008.35 0.181641H1031.8V23.6316M1008.35 23.6316V47.0816M1008.35 23.6316H1031.8M1008.35 47.0816V70.5316M1008.35 47.0816H1031.8M1008.35 70.5316V93.9816M1008.35 70.5316H1031.8M1008.35 93.9816V117.432M1008.35 93.9816H1031.8M1008.35 117.432V140.882M1008.35 117.432H1031.8M1008.35 140.882V164.332M1008.35 140.882H1031.8M1008.35 164.332V187.782M1008.35 164.332H1031.8M1008.35 187.782V211.232M1008.35 187.782H1031.8M1008.35 211.232V234.682M1008.35 211.232H1031.8M1008.35 234.682V258.132M1008.35 234.682H1031.8M1008.35 258.132V281.582M1008.35 258.132H1031.8M1008.35 281.582V305.032M1008.35 281.582H1031.8M1008.35 305.032V328.482M1008.35 305.032H1031.8M1008.35 328.482V351.932M1008.35 328.482H1031.8M1008.35 351.932V375.382M1008.35 351.932H1031.8M1008.35 375.382V398.832M1008.35 375.382H1031.8M1008.35 398.832V422.282M1008.35 398.832H1031.8M1008.35 422.282V445.732M1008.35 422.282H1031.8M1008.35 445.732V469.182M1008.35 445.732H1031.8M1008.35 469.182H1031.8V445.732M1031.8 23.6316V47.0816M1031.8 47.0816V70.5316M1031.8 70.5316V93.9816M1031.8 93.9816V117.432M1031.8 117.432V140.882M1031.8 140.882V164.332M1031.8 164.332V187.782M1031.8 187.782V211.232M1031.8 211.232V234.682M1031.8 234.682V258.132M1031.8 258.132V281.582M1031.8 281.582V305.032M1031.8 305.032V328.482M1031.8 328.482V351.932M1031.8 351.932V375.382M1031.8 375.382V398.832M1031.8 398.832V422.282M1031.8 422.282V445.732" stroke="url(#paint0_linear_71_149)" stroke-opacity="0.5" stroke-width="0.36413"/>
<defs>
<linearGradient id="paint0_linear_71_149" x1="359.5" y1="6.68162" x2="137.5" y2="257.682" gradientUnits="userSpaceOnUse">
<stop stop-opacity="0.2"/>
<stop offset="1" stop-opacity="0"/>
</linearGradient>
</defs>
</svg>
