<svg width="429" height="275" viewBox="0 0 429 275" fill="none" xmlns="http://www.w3.org/2000/svg">
<g clip-path="url(#clip0_71_91)">
<rect y="-46.8184" width="71.3701" height="71.37" rx="7.87532" stroke="#F0F0F0" stroke-opacity="0.05" stroke-width="0.738311"/>
<rect x="71.3691" y="-46.8184" width="71.3701" height="71.37" rx="7.87532" stroke="#F0F0F0" stroke-opacity="0.05" stroke-width="0.738311"/>
<rect x="142.74" y="-46.8184" width="71.3701" height="71.37" rx="7.87532" stroke="#F0F0F0" stroke-opacity="0.05" stroke-width="0.738311"/>
<rect x="214.109" y="-46.8184" width="71.3701" height="71.37" rx="7.87532" stroke="#F0F0F0" stroke-opacity="0.05" stroke-width="0.738311"/>
<rect x="285.48" y="-46.8184" width="71.3701" height="71.37" rx="7.87532" stroke="#F0F0F0" stroke-opacity="0.05" stroke-width="0.738311"/>
<rect x="356.85" y="-46.8184" width="71.3701" height="71.37" rx="7.87532" stroke="#F0F0F0" stroke-opacity="0.05" stroke-width="0.738311"/>
<rect y="24.5498" width="71.3701" height="71.37" rx="7.87532" stroke="#F0F0F0" stroke-opacity="0.05" stroke-width="0.738311"/>
<rect x="71.3691" y="24.5498" width="71.3701" height="71.37" rx="7.87532" stroke="#F0F0F0" stroke-opacity="0.05" stroke-width="0.738311"/>
<rect x="142.74" y="24.5498" width="71.3701" height="71.37" rx="7.87532" stroke="#F0F0F0" stroke-opacity="0.05" stroke-width="0.738311"/>
<rect x="214.109" y="24.5498" width="71.3701" height="71.37" rx="7.87532" stroke="#F0F0F0" stroke-opacity="0.05" stroke-width="0.738311"/>
<rect x="285.48" y="24.5498" width="71.3701" height="71.37" rx="7.87532" stroke="#F0F0F0" stroke-opacity="0.05" stroke-width="0.738311"/>
<rect x="356.85" y="24.5498" width="71.3701" height="71.37" rx="7.87532" stroke="#F0F0F0" stroke-opacity="0.05" stroke-width="0.738311"/>
<rect y="95.9219" width="71.3701" height="71.37" rx="7.87532" stroke="#F0F0F0" stroke-opacity="0.05" stroke-width="0.738311"/>
<rect x="71.3691" y="95.9219" width="71.3701" height="71.37" rx="7.87532" stroke="#F0F0F0" stroke-opacity="0.05" stroke-width="0.738311"/>
<rect x="142.74" y="95.9219" width="71.3701" height="71.37" rx="7.87532" stroke="#F0F0F0" stroke-opacity="0.05" stroke-width="0.738311"/>
<rect x="214.109" y="95.9219" width="71.3701" height="71.37" rx="7.87532" stroke="#F0F0F0" stroke-opacity="0.05" stroke-width="0.738311"/>
<rect x="285.48" y="95.9219" width="71.3701" height="71.37" rx="7.87532" stroke="#F0F0F0" stroke-opacity="0.05" stroke-width="0.738311"/>
<rect x="356.85" y="95.9219" width="71.3701" height="71.37" rx="7.87532" stroke="#F0F0F0" stroke-opacity="0.05" stroke-width="0.738311"/>
<rect y="167.292" width="71.3701" height="71.37" rx="7.87532" stroke="#F0F0F0" stroke-opacity="0.05" stroke-width="0.738311"/>
<rect x="71.3691" y="167.292" width="71.3701" height="71.37" rx="7.87532" stroke="#F0F0F0" stroke-opacity="0.05" stroke-width="0.738311"/>
<rect x="142.74" y="167.292" width="71.3701" height="71.37" rx="7.87532" stroke="#F0F0F0" stroke-opacity="0.05" stroke-width="0.738311"/>
<rect x="214.109" y="167.292" width="71.3701" height="71.37" rx="7.87532" stroke="#F0F0F0" stroke-opacity="0.05" stroke-width="0.738311"/>
<rect x="285.48" y="167.292" width="71.3701" height="71.37" rx="7.87532" stroke="#F0F0F0" stroke-opacity="0.05" stroke-width="0.738311"/>
<rect x="356.85" y="167.292" width="71.3701" height="71.37" rx="7.87532" stroke="#F0F0F0" stroke-opacity="0.05" stroke-width="0.738311"/>
<rect y="238.66" width="71.3701" height="71.37" rx="7.87532" stroke="#F0F0F0" stroke-opacity="0.05" stroke-width="0.738311"/>
<rect x="71.3691" y="238.66" width="71.3701" height="71.37" rx="7.87532" stroke="#F0F0F0" stroke-opacity="0.05" stroke-width="0.738311"/>
<rect x="142.74" y="238.66" width="71.3701" height="71.37" rx="7.87532" stroke="#F0F0F0" stroke-opacity="0.05" stroke-width="0.738311"/>
<rect x="214.109" y="238.66" width="71.3701" height="71.37" rx="7.87532" stroke="#F0F0F0" stroke-opacity="0.05" stroke-width="0.738311"/>
<rect x="285.48" y="238.66" width="71.3701" height="71.37" rx="7.87532" stroke="#F0F0F0" stroke-opacity="0.05" stroke-width="0.738311"/>
<rect x="356.85" y="238.66" width="71.3701" height="71.37" rx="7.87532" stroke="#F0F0F0" stroke-opacity="0.05" stroke-width="0.738311"/>
<path d="M285.481 -40.9131V16.6752C285.481 21.0246 289.007 24.5505 293.357 24.5505H348.976C353.326 24.5505 356.851 28.0764 356.851 32.4258V88.0452C356.851 92.3946 360.377 95.9205 364.727 95.9205H420.346C424.696 95.9205 428.221 99.4464 428.221 103.796V159.415C428.221 163.765 431.747 167.291 436.097 167.291H491.716C496.066 167.291 499.592 170.816 499.592 175.166V230.785C499.592 235.135 503.117 238.661 507.467 238.661H565.055M214.111 -40.9131V16.6752C214.111 21.0246 217.637 24.5505 221.987 24.5505H277.606C281.955 24.5505 285.481 28.0764 285.481 32.4258V88.0452C285.481 92.3946 289.007 95.9205 293.357 95.9205H348.976C353.326 95.9205 356.851 99.4464 356.851 103.796V159.415C356.851 163.765 353.326 167.291 348.976 167.291H293.357C289.007 167.291 285.481 163.765 285.481 159.415V102.811L285.412 102.346C284.884 98.7793 281.856 96.1158 278.251 96.0465L271.7 95.9205H221.987C217.637 95.9205 214.111 99.4464 214.111 103.796V159.415C214.111 163.765 217.637 167.291 221.987 167.291H278.098L279.968 167.415C283.07 167.622 285.481 170.199 285.481 173.309V179.35M285.481 173.197V230.785C285.481 235.135 289.007 238.661 293.357 238.661H348.976C353.326 238.661 356.851 242.186 356.851 246.536V302.155C356.851 306.505 360.377 310.031 364.727 310.031H420.346C424.696 310.031 428.221 313.557 428.221 317.906V373.525C428.221 377.875 431.747 381.401 436.097 381.401H491.716C496.066 381.401 499.592 384.927 499.592 389.276V444.895C499.592 449.245 503.117 452.771 507.467 452.771H565.055" stroke="url(#paint0_linear_71_91)" stroke-opacity="0.8" stroke-width="0.738311"/>
<ellipse cx="183.203" cy="137.724" rx="299.856" ry="249.979" transform="rotate(168.812 183.203 137.724)" fill="url(#paint1_linear_71_91)"/>
</g>
<defs>
<linearGradient id="paint0_linear_71_91" x1="214.111" y1="-40.9131" x2="557.18" y2="383.616" gradientUnits="userSpaceOnUse">
<stop offset="0.0819437" stop-color="#F7F7F7"/>
<stop offset="0.208333" stop-color="#12C2E9"/>
<stop offset="0.526042" stop-color="#C471ED"/>
<stop offset="0.9375" stop-color="#F64F59"/>
</linearGradient>
<linearGradient id="paint1_linear_71_91" x1="240.291" y1="-244.007" x2="437.493" y2="69.3555" gradientUnits="userSpaceOnUse">
<stop stop-opacity="0"/>
<stop offset="0.993816"/>
</linearGradient>
<clipPath id="clip0_71_91">
<rect width="428.22" height="274.061" fill="white"/>
</clipPath>
</defs>
</svg>
